<svg width="165" height="62" viewBox="0 0 165 62" fill="none" xmlns="http://www.w3.org/2000/svg">
<rect x="26.7914" y="5.59766" width="135.246" height="55" rx="27.5" transform="rotate(-2.36874 26.7914 5.59766)" fill="#DBE74C"/>
<path d="M55.1659 42.4753C53.837 42.5302 52.6513 42.3201 51.6088 41.8447C50.5663 41.3694 49.7441 40.6328 49.1423 39.6348C48.5552 38.6502 48.2813 37.4495 48.3208 36.0327C48.3491 34.6864 48.7573 33.0371 49.5453 31.0848L51.6188 31.9239C51.2764 32.7927 51.0203 33.546 50.8505 34.1835C50.6941 34.8065 50.6292 35.4398 50.6558 36.0832C50.7039 37.2442 51.0964 38.0967 51.8336 38.6407C52.5847 39.1841 53.6526 39.4272 55.0374 39.3699C56.1705 39.3231 57.1762 39.0783 58.0547 38.6356C58.9337 38.2069 59.5566 37.6837 59.9234 37.066C59.9356 37.0235 59.4895 36.9088 58.585 36.722L57.46 36.4533C56.3416 36.1773 55.5424 35.825 55.0622 35.3965C54.5821 34.968 54.3253 34.3481 54.2917 33.5368C54.2448 32.4037 54.4868 31.3078 55.0174 30.249C55.5481 29.1901 56.2688 28.3196 57.1794 27.6374C58.0899 26.9552 59.0698 26.5923 60.1189 26.5489C60.5385 26.5316 60.9678 26.5769 61.4066 26.6848C61.8449 26.7788 62.1514 26.9062 62.3262 27.0672L61.5569 29.8103C61.4147 29.7601 61.2099 29.7196 60.9423 29.6886C60.6748 29.6576 60.4362 29.6465 60.2264 29.6552C59.6528 29.6789 59.1055 29.8276 58.5844 30.1014C58.0767 30.3606 57.6494 30.7006 57.3024 31.1213C56.955 31.528 56.7278 31.9647 56.621 32.4315C56.6093 32.4881 56.6052 32.5583 56.6087 32.6422C56.6186 32.88 56.7881 33.0832 57.1173 33.2517C57.46 33.4057 58.0903 33.5688 59.0082 33.741C60.2932 33.9821 61.1688 34.3172 61.635 34.7463C62.1145 35.1608 62.3664 35.6618 62.3907 36.2493C62.433 37.2705 62.1442 38.2492 61.5244 39.1857C60.9045 40.1221 60.0324 40.8868 58.9079 41.4798C57.7981 42.0861 56.5507 42.418 55.1659 42.4753ZM71.4153 36.7798C70.4641 36.8191 69.6803 36.5013 69.0638 35.8262C68.4474 35.1511 67.9173 34.1922 67.4736 32.9494L69.3142 31.7173C69.5407 32.4506 69.8002 32.9653 70.0927 33.2615C70.3846 33.5436 70.7824 33.6743 71.2859 33.6535L71.4748 33.6457L71.7077 35.2124L71.6041 36.772L71.4153 36.7798ZM63.1036 40.6126C64.0112 40.1967 64.8392 39.7211 65.5877 39.1857C66.3368 38.6643 66.9181 38.1498 67.3314 37.6423C67.7588 37.1342 67.9652 36.7053 67.9508 36.3556C67.9271 35.7821 67.4919 34.2378 66.6452 31.7226L66.5229 31.3073L68.8347 30.2869C69.2103 31.2382 69.5189 32.2623 69.7605 33.3593C70.0014 34.4422 70.1396 35.4104 70.1749 36.2636C70.2316 37.6345 69.7454 38.9226 68.7164 40.1282C67.6879 41.3478 66.28 42.3728 64.4928 43.2034L63.1036 40.6126ZM71.2902 33.6533L72.0036 33.6238C73.1926 33.5746 74.168 33.4432 74.9298 33.2295C75.6916 33.0158 76.1991 32.7496 76.4521 32.4309C76.2025 31.1381 74.6765 29.4778 71.8743 27.4499L72.0342 24.7109L79.7033 21.0938L80.6459 23.556L74.6888 26.3876C75.6159 27.1199 76.5149 28.0215 77.3859 29.0925C78.2569 30.1634 78.715 31.2444 78.7601 32.3354C78.77 32.5732 78.7457 32.8335 78.6873 33.1161C78.4544 34.2607 77.7551 35.1374 76.5892 35.7461C75.4228 36.3408 73.9374 36.6755 72.1329 36.7501L71.4195 36.7796L71.2902 33.6533ZM72.16 22.1625L78.8638 19.0898L79.2621 20.0822L72.0871 23.4476L72.16 22.1625ZM94.8347 35.811C93.4499 35.8683 92.4236 35.4484 91.756 34.5512C91.0878 33.64 90.6915 32.3603 90.5673 30.7121C90.5359 30.293 90.5763 29.913 90.6883 29.5721C90.8143 29.2306 90.9784 28.9646 91.1807 28.774C91.3824 28.5695 91.5812 28.4632 91.777 28.4551C91.9309 28.4488 92.0594 28.5065 92.1625 28.6283C92.2657 28.7502 92.3224 28.937 92.3328 29.1888C92.3862 30.1394 92.4862 30.8639 92.6329 31.3622C92.7936 31.86 93.0325 32.2144 93.3495 32.4255C93.6799 32.622 94.1458 32.7079 94.7473 32.683L94.9781 32.6734L95.1075 35.7998L94.8347 35.811ZM91.3808 20.4006C91.969 23.7812 92.2992 26.8502 92.3712 29.6076C92.4168 31.0489 92.0271 32.2981 91.2021 33.3551C90.3771 34.4121 89.2622 35.2359 87.8574 35.8264C86.4666 36.4164 84.933 36.7741 83.2568 36.8995L82.4035 34.0553C83.895 33.8675 85.1741 33.6254 86.2408 33.3291C87.3214 33.0322 88.2002 32.5965 88.877 32.022C89.5538 31.4476 89.8729 30.6917 89.8341 29.7545C89.7622 28.3563 89.6449 27.044 89.4821 25.8177C89.3193 24.5914 89.0857 23.0107 88.7815 21.0756L91.3808 20.4006ZM83.7349 22.5455C84.6302 24.2039 85.3187 25.7728 85.8002 27.2521C86.2952 28.7169 86.567 30.0368 86.6156 31.2118C86.6549 32.163 86.5547 32.9588 86.315 33.5993L84.1669 34.0034C84.3582 33.5471 84.4405 32.9972 84.4139 32.3538C84.3392 30.5493 83.3997 27.8208 81.5952 24.1683L83.7349 22.5455ZM94.7721 32.6819L95.8841 32.6359C96.8913 32.5943 97.607 32.4526 98.0314 32.2108C98.4698 31.9685 98.6797 31.6235 98.6612 31.1759C98.649 30.8822 98.4784 30.3147 98.1494 29.4736C97.8197 28.6185 97.5626 27.9916 97.378 27.5929L99.5307 26.2848C99.8208 26.8613 100.126 27.6403 100.447 28.6219C100.781 29.5889 100.964 30.4431 100.995 31.1845C101.054 32.6113 100.651 33.7139 99.7862 34.4923C98.9356 35.2701 97.678 35.6934 96.0135 35.7623L94.9014 35.8083L94.7721 32.6819ZM96.6066 37.3982C97.0576 37.7999 97.5018 38.2088 97.9394 38.6251L98.6168 39.2487L96.7663 41.2589L94.7351 39.4092L96.6066 37.3982ZM119.451 28.9287C119.41 29.2947 119.393 29.5547 119.399 29.7086C119.426 30.366 119.642 30.8475 120.047 31.153C120.466 31.4579 121.096 31.5931 121.935 31.5583L122.292 31.5436L122.524 33.1103L122.421 34.6699L122.064 34.6847C121.141 34.7229 120.328 34.5533 119.626 34.176C118.923 33.7847 118.375 33.2329 117.981 32.5206C117.587 31.7942 117.37 30.9625 117.332 30.0253C117.313 29.5777 117.336 29.1143 117.4 28.6353L119.451 28.9287ZM115.204 43.1234C113.861 43.179 112.627 42.9918 111.503 42.5619C110.378 42.132 109.475 41.4758 108.794 40.5932C108.114 39.7246 107.748 38.6818 107.698 37.4648C107.686 37.185 107.685 36.9749 107.693 36.8345C107.768 35.276 108.328 33.9077 109.372 32.7295C110.416 31.5374 111.869 30.5735 113.73 29.838C115.604 29.0879 117.805 28.6045 120.332 28.3879L119.817 30.6581C118.95 30.3577 117.954 29.8384 116.831 29.1002C115.809 28.4419 114.977 27.9789 114.335 27.7111C113.707 27.4289 113.106 27.2996 112.533 27.3233C112.001 27.3453 111.532 27.5118 111.124 27.823C110.731 28.1335 110.43 28.4752 110.221 28.8482L108.405 27.6412C109.396 25.4984 110.751 24.3914 112.472 24.3203C113.269 24.2873 114.053 24.444 114.824 24.7904C115.608 25.1223 116.656 25.7235 117.967 26.5941C118.673 27.0553 119.22 27.397 119.607 27.6192C119.994 27.8274 120.407 27.9994 120.847 28.1354L120.615 31.1505C118.503 31.2379 116.653 31.5667 115.065 32.1368C113.491 32.7063 112.267 33.4225 111.392 34.2854C110.53 35.1478 110.056 36.0361 109.967 36.9506C109.937 37.5684 110.163 38.1125 110.645 38.583C111.141 39.0669 111.822 39.4311 112.686 39.6755C113.552 39.934 114.516 40.0412 115.579 39.9972C116.558 39.9567 117.477 39.8136 118.336 39.5679C119.194 39.3222 119.871 39.0911 120.367 38.8744L121.599 41.2195C119.742 42.3892 117.61 43.0239 115.204 43.1234ZM115.045 34.1974C115.496 34.5991 115.94 35.008 116.378 35.4243L117.055 36.0478L115.205 38.058L113.174 36.2084L115.045 34.1974ZM122.086 31.5521L122.233 31.546C123.491 31.4939 124.426 31.3922 125.036 31.2409C125.646 31.0755 126.043 30.8559 126.228 30.5821C126.413 30.3082 126.495 29.9195 126.474 29.4159C126.457 29.0102 126.36 28.3487 126.182 27.4313L128.326 26.9222C128.564 27.9353 128.709 29.0852 128.763 30.3721C128.828 30.6076 128.991 30.8111 129.25 30.9825C129.51 31.1539 129.877 31.2298 130.353 31.2101L130.478 31.2049L130.711 32.7716L130.608 34.3312L130.482 34.3365C129.838 34.3631 129.237 34.2128 128.677 33.8857C128.116 33.5446 127.671 33.1076 127.34 32.5748L127.869 32.658C127.518 33.3171 126.922 33.8041 126.08 34.1192C125.252 34.4197 124.012 34.6041 122.362 34.6723L122.215 34.6784L122.086 31.5521ZM127.955 39.8006L126.119 38.111L127.808 36.2546C128.216 36.6301 128.42 36.8178 128.42 36.8178C129.25 37.5821 129.665 37.9643 129.665 37.9643L127.955 39.8006ZM124.262 39.9533L122.426 38.2638L124.115 36.4074C124.523 36.7828 124.727 36.9706 124.727 36.9706C125.557 37.7349 125.972 38.1171 125.972 38.1171L124.262 39.9533ZM131.184 31.1757L132.192 31.1341C133.576 31.0768 134.551 30.9174 135.114 30.6558C135.678 30.3943 135.95 30.0188 135.929 29.5292C135.903 29.222 135.718 28.6412 135.374 27.7867C135.03 26.9181 134.782 26.3399 134.63 26.0519L136.803 24.743C137.107 25.3189 137.42 26.0907 137.74 27.0583C138.06 28.0119 138.234 28.8523 138.265 29.5797C138.31 31.0071 137.872 32.1251 136.953 32.9338C136.033 33.7285 134.643 34.1643 132.783 34.2413L131.314 34.302L131.184 31.1757ZM136.443 38.903L134.696 37.3148L136.304 35.5458C136.582 35.8286 137.013 36.2382 137.595 36.7745L138.053 37.1759L136.443 38.903ZM132.478 39.067L130.752 37.478L131.374 36.7797L132.339 35.7099L133.519 36.796L134.109 37.3391L132.478 39.067ZM134.566 41.2716L133.036 39.8636L134.443 38.3131C134.443 38.3131 134.786 38.6282 135.47 39.2585L135.995 39.7412L134.566 41.2716ZM130.433 34.3385L130.2 32.7928L130.303 31.2122L131.331 31.1696L131.461 34.296L130.433 34.3385Z" fill="black"/>
</svg>
