<svg width="220" height="58" viewBox="0 0 220 58" fill="none" xmlns="http://www.w3.org/2000/svg">
<rect x="1.89655" y="0.805176" width="217.74" height="52" rx="26" transform="rotate(1.31966 1.89655 0.805176)" fill="#AFA7FF"/>
<path d="M44.0957 30.4251C43.6065 31.6042 43.0471 32.4805 42.4177 33.0542C41.7884 33.6278 41.0188 33.9042 40.109 33.8832C39.2973 33.8645 38.6042 33.5545 38.0299 32.9531C37.4696 32.352 37.2051 31.3727 37.2364 30.015C37.2399 29.8611 37.2599 29.6025 37.2962 29.2392C37.4022 28.2894 37.6682 27.3783 38.0944 26.5059C38.5206 25.6335 39.0831 24.9252 39.7818 24.3812C40.4945 23.8374 41.2847 23.5756 42.1525 23.5956C42.9923 23.6149 43.6819 23.7708 44.2213 24.0633C44.761 24.3418 45.1194 24.5882 45.2966 24.8023L44.6698 30.1233C44.6198 30.4722 44.5915 30.7866 44.5851 31.0666C44.5716 31.6544 44.6468 32.0342 44.8109 32.2061C44.989 32.3782 45.281 32.469 45.6869 32.4783C46.4007 32.4948 46.9696 32.1158 47.3935 31.3413C47.8315 30.5672 48.0669 29.4663 48.0998 28.0387C48.1526 25.7433 47.6612 23.9745 46.6256 22.7324C45.5899 21.4902 44.0434 20.8454 41.9859 20.798C40.5863 20.7657 39.3386 21.1291 38.2428 21.8881C37.161 22.6474 36.3182 23.6712 35.7144 24.9597C35.1109 26.2341 34.792 27.6131 34.7579 29.0967C34.7027 31.4901 35.1923 33.3359 36.2267 34.634C37.2608 35.9462 38.8695 36.6274 41.0529 36.6777C41.5708 36.6896 42.1603 36.6332 42.8213 36.5084C43.482 36.3976 43.9968 36.2414 44.3655 36.0398L44.7091 37.5391C44.2267 37.8081 43.6409 38.0117 42.9515 38.1498C42.2618 38.302 41.5811 38.3703 40.9093 38.3548C38.082 38.2897 36.0092 37.3877 34.6909 35.6489C33.3866 33.9104 32.7669 31.6345 32.8317 28.8213C32.8694 27.1837 33.2768 25.6107 34.0537 24.1022C34.8306 22.5937 35.9089 21.3792 37.2885 20.4587C38.6824 19.5246 40.2681 19.078 42.0456 19.1189C43.7531 19.1582 45.2072 19.5628 46.4078 20.3327C47.6227 21.0889 48.5221 22.1669 49.106 23.5667C49.7043 24.9528 49.9536 26.59 49.8541 28.4782C49.8006 29.5833 49.5751 30.5584 49.1776 31.4034C48.7803 32.2345 48.2473 32.8804 47.5785 33.3411C46.9097 33.8018 46.1553 34.0295 45.3152 34.0242C44.5734 34.0071 43.9274 33.7821 43.3772 33.3494C42.827 32.9166 42.5653 32.1193 42.5921 30.9576C42.5982 30.6917 42.6099 30.4889 42.6271 30.3493L43.1802 25.4887C42.9175 25.3426 42.583 25.2719 42.1768 25.2766C41.463 25.2601 40.8666 25.6175 40.3876 26.3486C39.9227 27.0801 39.62 28.0604 39.4797 29.2895C39.4615 29.4711 39.4488 29.7159 39.4417 30.0238C39.4234 30.8216 39.5296 31.3772 39.7604 31.6906C39.9916 31.99 40.3591 32.1455 40.863 32.1571C41.2829 32.1668 41.6513 31.9792 41.9682 31.5944C42.2995 31.196 42.6367 30.5386 42.9799 29.6222L44.0957 30.4251ZM55.7008 20.2317L55.6379 22.961L57.5694 23.0055L57.523 25.0209L55.5915 24.9764L55.458 30.7709C55.448 31.2048 55.5248 31.5216 55.6882 31.7215C55.852 31.9073 56.1508 32.0052 56.5847 32.0152C56.7806 32.0197 57.0752 31.9985 57.4684 31.9515L57.42 34.051C56.8563 34.206 56.2735 34.2766 55.6717 34.2627C53.5862 34.2147 52.5683 33.113 52.618 30.9575L52.7573 24.9111L51.0987 24.8729L51.1451 22.8575L52.8037 22.8957L52.8666 20.1664L55.7008 20.2317ZM65.5001 34.2791C65.3939 34.0246 65.3042 33.6654 65.2308 33.2016C64.4834 34.0386 63.5148 34.4434 62.3251 34.416C61.6253 34.3999 60.9917 34.2453 60.4243 33.9521C59.8572 33.645 59.4115 33.2356 59.0872 32.724C58.7772 32.1987 58.6293 31.6282 58.6435 31.0123C58.6706 29.8366 59.1323 28.944 60.0285 28.3345C60.9388 27.7253 62.2197 27.4397 63.8713 27.4778L65.2569 27.5097L65.2729 26.8169C65.2861 26.243 65.1493 25.7988 64.8625 25.4841C64.5756 25.1694 64.1453 25.0054 63.5715 24.9922C63.0536 24.9803 62.6376 25.1037 62.3236 25.3626C62.0099 25.6074 61.848 25.9468 61.838 26.3807L59.0248 26.3159C59.0396 25.672 59.2491 25.0887 59.6532 24.5659C60.0714 24.0434 60.6339 23.6362 61.3408 23.3444C62.0617 23.0529 62.8701 22.9175 63.7658 22.9382C65.1235 22.9694 66.1864 23.33 66.9547 24.0199C67.7234 24.6958 68.1082 25.6219 68.1091 26.7982L67.9944 31.7739C67.9712 32.7816 68.0928 33.5826 68.3592 34.1769L68.3553 34.3449L65.5001 34.2791ZM63.0043 32.2891C63.4661 32.2997 63.8956 32.1976 64.2927 31.9827C64.69 31.7538 64.9836 31.4735 65.1733 31.1417L65.2187 29.1683L64.022 29.1407C62.3705 29.1027 61.531 29.6785 61.5036 30.8682C61.4939 31.288 61.6261 31.6272 61.9003 31.8856C62.1744 32.1439 62.5424 32.2785 63.0043 32.2891ZM76.6373 26.0074C76.4427 25.9469 76.0934 25.9109 75.5895 25.8992C74.4419 25.8728 73.6764 26.2753 73.2931 27.1067L73.1239 34.4547L70.2686 34.389L70.524 23.3039L73.2323 23.3663L73.2638 24.7324C73.9038 23.6968 74.7557 23.1913 75.8194 23.2158C76.1833 23.2242 76.4903 23.2733 76.7403 23.3631L76.6373 26.0074ZM84.0547 34.7065C83.9486 34.452 83.8588 34.0929 83.7855 33.629C83.038 34.4661 82.0694 34.8709 80.8797 34.8435C80.1799 34.8273 79.5463 34.6727 78.9789 34.3796C78.4118 34.0724 77.9662 33.663 77.6419 33.1514C77.3319 32.6262 77.184 32.0556 77.1982 31.4398C77.2252 30.2641 77.6869 29.3715 78.5832 28.7619C79.4935 28.1527 80.7744 27.8672 82.4259 27.9052L83.8116 27.9371L83.8275 27.2443C83.8408 26.6705 83.7039 26.2262 83.4171 25.9115C83.1303 25.5968 82.7 25.4329 82.1261 25.4197C81.6082 25.4077 81.1923 25.5312 80.8782 25.79C80.5645 26.0349 80.4027 26.3742 80.3927 26.8081L77.5794 26.7433C77.5942 26.0995 77.8037 25.5161 78.2079 24.9933C78.626 24.4708 79.1886 24.0636 79.8955 23.7718C80.6164 23.4804 81.4247 23.345 82.3205 23.3656C83.6781 23.3969 84.7411 23.7574 85.5094 24.4473C86.278 25.1232 86.6628 26.0493 86.6637 27.2256L86.5491 32.2013C86.5259 33.2091 86.6475 34.0101 86.9138 34.6044L86.91 34.7723L84.0547 34.7065ZM81.5589 32.7165C82.0208 32.7272 82.4502 32.625 82.8473 32.4101C83.2447 32.1812 83.5382 31.9009 83.7279 31.5692L83.7734 29.5957L82.5767 29.5681C80.9251 29.5301 80.0856 30.1059 80.0582 31.2956C80.0486 31.7155 80.1808 32.0546 80.4549 32.313C80.729 32.5714 81.097 32.7059 81.5589 32.7165ZM91.7029 23.7918L91.7769 25.1378C92.5846 24.1202 93.6672 23.627 95.0249 23.6583C97.3343 23.7115 98.4717 25.096 98.4371 27.8119L98.2708 35.034L95.4365 34.9687L95.6009 27.8306C95.6024 27.1585 95.4666 26.6722 95.1934 26.3719C94.9346 26.0578 94.4763 25.8932 93.8184 25.8781C93.3706 25.8677 92.9692 25.9635 92.6145 26.1654C92.2738 26.3676 92.0011 26.6554 91.7964 27.0288L91.6155 34.8807L88.7813 34.8154L89.0366 23.7304L91.7029 23.7918ZM105.605 35.413C104.528 35.3882 103.581 35.1424 102.766 34.6754C101.951 34.1945 101.322 33.5359 100.879 32.6995C100.45 31.8634 100.248 30.8995 100.273 29.8078L100.28 29.5138C100.305 28.4221 100.531 27.4471 100.956 26.5886C101.396 25.7305 102.007 25.0654 102.788 24.5933C103.583 24.1075 104.506 23.8767 105.556 23.9008C107.067 23.9357 108.239 24.4458 109.07 25.4312C109.916 26.4169 110.319 27.7776 110.279 29.5131L110.252 30.6468L103.135 30.4828L103.134 30.5248C103.2 31.3106 103.473 31.947 103.952 32.4342C104.445 32.9216 105.076 33.1743 105.846 33.192C106.979 33.2181 107.892 32.812 108.583 31.9737L109.956 33.4757C109.493 34.1092 108.88 34.5992 108.116 34.9457C107.366 35.2786 106.529 35.4343 105.605 35.413ZM105.483 26.1258C104.881 26.1119 104.38 26.3174 103.978 26.7423C103.576 27.1531 103.317 27.7563 103.201 28.5518L107.505 28.651L107.51 28.441C107.498 27.7126 107.315 27.1482 106.96 26.748C106.619 26.348 106.127 26.1406 105.483 26.1258ZM114.867 25.5647C115.673 24.617 116.684 24.1572 117.902 24.1853C119.106 24.213 120 24.5837 120.586 25.2974C121.186 26.0114 121.477 27.0614 121.459 28.4473L121.295 35.5644L118.461 35.4991L118.624 28.403C118.626 27.7309 118.483 27.2374 118.196 26.9228C117.924 26.5944 117.472 26.423 116.843 26.4085C116.395 26.3981 115.994 26.4869 115.639 26.6748C115.299 26.863 115.027 27.1298 114.823 27.4752L114.64 35.4111L111.784 35.3453L112.147 19.5995L115.002 19.6653L114.867 25.5647ZM126.031 35.6735C125.499 35.6613 125.056 35.469 124.7 35.0967C124.359 34.7248 124.194 34.2728 124.206 33.741C124.218 33.2091 124.404 32.7723 124.761 32.4304C125.133 32.0889 125.585 31.9243 126.117 31.9365C126.649 31.9488 127.086 32.1409 127.427 32.5128C127.783 32.8711 127.955 33.3092 127.943 33.8271C127.931 34.3589 127.739 34.8026 127.366 35.1581C127.008 35.514 126.563 35.6858 126.031 35.6735ZM134.801 31.3383L133.726 32.4059L133.647 35.849L130.813 35.7837L131.175 20.0379L134.01 20.1031L133.806 28.9208L134.454 28.1795L137.471 24.8461L140.872 24.9245L136.694 29.4074L140.974 36.0178L137.699 35.9423L134.801 31.3383ZM144.964 26.2581C145.77 25.3104 146.782 24.8506 148 24.8786C149.203 24.9063 150.098 25.277 150.684 25.9907C151.283 26.7047 151.574 27.7547 151.556 29.1406L151.392 36.2578L148.558 36.1925L148.722 29.0964C148.723 28.4242 148.58 27.9308 148.294 27.6161C148.021 27.2877 147.57 27.1163 146.94 27.1018C146.492 27.0915 146.091 27.1803 145.737 27.3681C145.396 27.5564 145.124 27.8232 144.92 28.1686L144.737 36.1044L141.882 36.0387L142.245 20.2928L145.1 20.3586L144.964 26.2581ZM158.727 36.6368C157.649 36.612 156.703 36.3661 155.887 35.8992C155.072 35.4183 154.443 34.7596 154 33.9232C153.571 33.0871 153.37 32.1232 153.395 31.0315L153.402 30.7376C153.427 29.6459 153.652 28.6708 154.078 27.8124C154.518 26.9543 155.128 26.2892 155.91 25.817C156.705 25.3312 157.627 25.1004 158.677 25.1246C160.189 25.1594 161.36 25.6695 162.192 26.6549C163.037 27.6407 163.44 29.0013 163.4 30.7368L163.374 31.8705L156.257 31.7066L156.256 31.7486C156.322 32.5343 156.594 33.1707 157.073 33.6579C157.566 34.1454 158.198 34.398 158.967 34.4157C160.101 34.4418 161.014 34.0358 161.705 33.1975L163.078 34.6995C162.615 35.333 162.002 35.823 161.238 36.1695C160.488 36.5023 159.651 36.6581 158.727 36.6368ZM158.605 27.3495C158.003 27.3356 157.501 27.5411 157.099 27.966C156.698 28.3769 156.439 28.9801 156.322 29.7756L160.626 29.8747L160.631 29.6648C160.62 28.9363 160.437 28.372 160.082 27.9717C159.741 27.5717 159.249 27.3643 158.605 27.3495ZM171.338 28.189C171.143 28.1285 170.794 28.0924 170.29 28.0808C169.142 28.0544 168.377 28.4568 167.994 29.2882L167.824 36.6363L164.969 36.5705L165.224 25.4855L167.933 25.5478L167.964 26.9139C168.604 25.8784 169.456 25.3729 170.52 25.3974C170.884 25.4058 171.191 25.4549 171.441 25.5446L171.338 28.189ZM178.755 36.8881C178.649 36.6336 178.559 36.2744 178.486 35.8106C177.738 36.6476 176.77 37.0524 175.58 37.025C174.88 37.0089 174.247 36.8543 173.679 36.5611C173.112 36.254 172.667 35.8446 172.342 35.333C172.032 34.8077 171.884 34.2372 171.899 33.6213C171.926 32.4456 172.387 31.553 173.284 30.9435C174.194 30.3343 175.475 30.0487 177.126 30.0868L178.512 30.1187L178.528 29.4259C178.541 28.852 178.404 28.4078 178.118 28.0931C177.831 27.7784 177.4 27.6144 176.827 27.6012C176.309 27.5893 175.893 27.7127 175.579 27.9716C175.265 28.2164 175.103 28.5558 175.093 28.9897L172.28 28.9249C172.295 28.281 172.504 27.6977 172.908 27.1749C173.326 26.6524 173.889 26.2452 174.596 25.9534C175.317 25.6619 176.125 25.5265 177.021 25.5472C178.379 25.5784 179.442 25.939 180.21 26.6289C180.978 27.3048 181.363 28.2309 181.364 29.4072L181.25 34.3829C181.226 35.3906 181.348 36.1916 181.614 36.7859L181.61 36.9539L178.755 36.8881ZM176.259 34.8981C176.721 34.9087 177.151 34.8066 177.548 34.5917C177.945 34.3628 178.239 34.0825 178.428 33.7507L178.474 31.7773L177.277 31.7497C175.626 31.7117 174.786 32.2875 174.759 33.4772C174.749 33.897 174.881 34.2362 175.155 34.4946C175.429 34.7529 175.797 34.8875 176.259 34.8981ZM183.191 31.3608C183.218 30.2131 183.416 29.2164 183.785 28.3707C184.169 27.5253 184.695 26.8792 185.364 26.4325C186.032 25.9858 186.807 25.7726 187.689 25.7929C188.795 25.8184 189.695 26.2522 190.39 27.0945L190.521 21.405L193.355 21.4703L192.992 37.2161L190.431 37.1571L190.311 35.957C189.576 36.8783 188.607 37.3251 187.403 37.2974C186.535 37.2774 185.778 37.0289 185.13 36.5518C184.484 36.0608 183.988 35.3702 183.645 34.4801C183.315 33.5902 183.164 32.5505 183.191 31.3608ZM186.042 31.6365C186.017 32.7282 186.186 33.5724 186.551 34.1689C186.915 34.7515 187.455 35.051 188.168 35.0674C189.106 35.089 189.794 34.6988 190.233 33.8966L190.338 29.3199C189.937 28.4984 189.275 28.077 188.351 28.0558C187.665 28.04 187.12 28.3005 186.716 28.8373C186.325 29.3605 186.105 30.1256 186.053 31.1327L186.042 31.6365Z" fill="black"/>
</svg>
