<svg width="152" height="59" viewBox="0 0 152 59" fill="none" xmlns="http://www.w3.org/2000/svg">
<rect x="0.582031" y="6.62793" width="149.401" height="52" rx="26" transform="rotate(-2.36874 0.582031 6.62793)" fill="#AFA7FF"/>
<path d="M36.3476 33.8136C35.9351 35.0217 35.4333 35.9322 34.8422 36.5452C34.251 37.1581 33.5008 37.4834 32.5916 37.521C31.7803 37.5546 31.0687 37.2898 30.4569 36.7266C29.8591 36.1628 29.5321 35.2025 29.476 33.8457C29.4696 33.6918 29.4729 33.4324 29.4859 33.0676C29.5304 32.1129 29.7373 31.1866 30.1065 30.2886C30.4757 29.3905 30.9915 28.6476 31.6537 28.0597C32.33 27.4713 33.1017 27.1591 33.969 27.1232C34.8083 27.0885 35.5065 27.1997 36.0636 27.4569C36.6201 27.7001 36.9936 27.9229 37.1842 28.1252L36.9011 33.4755C36.8736 33.8269 36.8656 34.1425 36.8772 34.4223C36.9015 35.0098 37.001 35.384 37.1758 35.5449C37.3646 35.7052 37.6618 35.777 38.0675 35.7602C38.7809 35.7307 39.3242 35.3159 39.6974 34.5158C40.0847 33.7151 40.2488 32.6014 40.1898 31.1746C40.0949 28.8805 39.4907 27.147 38.3773 25.974C37.2638 24.8011 35.679 24.2571 33.6228 24.3422C32.224 24.4 31.0022 24.8429 29.9575 25.6708C28.9269 26.4981 28.1517 27.574 27.632 28.8987C27.1117 30.2093 26.8822 31.606 26.9436 33.0887C27.0425 35.4806 27.6499 37.2911 28.7656 38.52C29.8819 39.763 31.5312 40.3393 33.7133 40.249C34.2308 40.2276 34.8154 40.1334 35.4671 39.9663C36.1193 39.8132 36.6229 39.6242 36.978 39.3994L37.4173 40.8735C36.9532 41.1729 36.3817 41.4137 35.7027 41.5959C35.0242 41.7922 34.3492 41.9041 33.6778 41.9319C30.8522 42.0488 28.7257 41.282 27.2983 39.6316C25.8848 37.9806 25.12 35.7493 25.0037 32.9377C24.936 31.3011 25.2413 29.7052 25.9196 28.1498C26.5979 26.5944 27.5957 25.3131 28.9132 24.3058C30.2441 23.2839 31.7978 22.7362 33.5743 22.6627C35.2809 22.5921 36.7579 22.9024 38.0056 23.5934C39.2666 24.2698 40.2335 25.2877 40.9063 26.6471C41.5924 27.9919 41.9466 29.6096 41.9688 31.5003C41.9865 32.6065 41.8242 33.5941 41.4818 34.463C41.1388 35.3179 40.6485 35.9967 40.0107 36.4995C39.3729 37.0023 38.6347 37.2781 37.796 37.3268C37.0546 37.3574 36.3955 37.1745 35.8186 36.778C35.2417 36.3815 34.9293 35.6028 34.8813 34.4418C34.8703 34.176 34.8689 33.9729 34.8771 33.8324L35.1163 28.9464C34.8448 28.8175 34.5065 28.7684 34.1014 28.7992C33.388 28.8287 32.8158 29.2237 32.3849 29.9841C31.9679 30.744 31.729 31.7418 31.668 32.9773C31.6615 33.1598 31.6647 33.4048 31.6774 33.7126C31.7104 34.5099 31.8521 35.0575 32.1027 35.3554C32.3526 35.6393 32.7294 35.7709 33.2329 35.75C33.6526 35.7327 34.0082 35.5218 34.2997 35.1174C34.6046 34.6984 34.8989 34.0207 35.1824 33.0842L36.3476 33.8136ZM47.4243 36.7183L44.5707 36.8364L44.1125 25.7578L46.966 25.6398L47.4243 36.7183ZM43.8248 22.8692C43.8075 22.4496 43.9332 22.1011 44.202 21.8238C44.4841 21.5319 44.87 21.3758 45.3596 21.3555C45.8352 21.3358 46.2256 21.4598 46.531 21.7274C46.8357 21.981 46.9968 22.3177 47.0141 22.7373C47.0315 23.157 46.8991 23.5127 46.6169 23.8046C46.3341 24.0826 45.955 24.2314 45.4794 24.251C44.9898 24.2713 44.5926 24.1546 44.2879 23.901C43.9965 23.6328 43.8422 23.2889 43.8248 22.8692ZM52.7642 22.6676L52.8771 25.3953L54.8074 25.3154L54.8907 27.3297L52.9604 27.4095L53.1999 33.2006C53.2179 33.6342 53.3148 33.9455 53.4908 34.1344C53.6662 34.3093 53.9707 34.3878 54.4043 34.3698C54.6001 34.3617 54.8927 34.3216 55.2821 34.2494L55.3689 36.3476C54.8163 36.5386 54.2393 36.6466 53.6378 36.6715C51.5536 36.7577 50.4669 35.7237 50.3778 33.5696L50.1278 27.5267L48.4702 27.5953L48.3869 25.581L50.0445 25.5124L49.9317 22.7848L52.7642 22.6676ZM62.9014 33.0305C62.8852 32.6388 62.6836 32.3389 62.2967 32.1307C61.9238 31.9219 61.3209 31.7437 60.4881 31.596C59.1756 31.3701 58.1794 30.9979 57.4994 30.4796C56.8333 29.9607 56.483 29.2816 56.4483 28.4423C56.4216 27.7988 56.5795 27.2108 56.9217 26.6782C57.278 26.145 57.7788 25.718 58.4241 25.397C59.0834 25.0755 59.8396 24.8971 60.6929 24.8618C61.6021 24.8242 62.4058 24.9451 63.1039 25.2244C63.8155 25.4893 64.3711 25.8796 64.7708 26.3956C65.1844 26.9109 65.4057 27.5183 65.4347 28.2177L62.6021 28.3348C62.5824 27.8592 62.4059 27.4882 62.0726 27.2218C61.7387 26.9413 61.299 26.8124 60.7535 26.835C60.2639 26.8552 59.8705 26.9976 59.5731 27.2621C59.2752 27.5126 59.1341 27.8267 59.1497 28.2044C59.1665 28.6101 59.3818 28.9024 59.7955 29.0815C60.2233 29.2599 60.8186 29.4245 61.5815 29.5751C61.9766 29.6428 62.2523 29.7015 62.4084 29.7511C63.4697 30.0014 64.2628 30.3749 64.7878 30.8717C65.3262 31.3538 65.6122 32.0006 65.6457 32.8119C65.6729 33.4693 65.5014 34.0649 65.1311 34.5987C64.7603 35.1184 64.231 35.5327 63.5431 35.8414C62.8693 36.1495 62.0847 36.322 61.1895 36.3591C60.3223 36.395 59.5183 36.2671 58.7776 35.9754C58.0369 35.6838 57.4382 35.2672 56.9814 34.7256C56.538 34.1695 56.3019 33.5417 56.273 32.8423L58.9587 32.7312C58.9958 33.2901 59.2093 33.7087 59.5991 33.9868C60.0029 34.2643 60.5196 34.3901 61.149 34.364C61.7225 34.3403 62.1585 34.2102 62.457 33.9737C62.7689 33.7226 62.917 33.4082 62.9014 33.0305ZM75.9928 37.7014L66.6977 38.0859L66.6083 35.9247L75.9034 35.5402L75.9928 37.7014ZM76.43 29.8226C76.3832 28.6896 76.5312 27.6956 76.8742 26.8407C77.2166 25.9718 77.7142 25.2997 78.3671 24.8243C79.0195 24.3349 79.7862 24.072 80.6675 24.0355C81.9124 23.984 82.8952 24.3707 83.616 25.1956L83.6766 24.1212L86.2574 24.0145L86.7009 34.7363C86.7281 35.3937 86.5956 36.0858 86.3034 36.8125C86.0117 37.5532 85.485 38.1985 84.723 38.7485C83.9617 39.3124 82.9306 39.6213 81.6297 39.6751C80.8184 39.7087 80.0214 39.5805 79.2388 39.2906C78.4701 39.0001 77.872 38.5975 77.4443 38.0827L78.6548 36.3512C79.3755 37.1761 80.2954 37.5655 81.4144 37.5192C82.2397 37.485 82.8599 37.2352 83.275 36.7696C83.6907 36.3181 83.8812 35.6726 83.8465 34.8333L83.8222 34.2459C83.1552 35.0581 82.2552 35.4877 81.1221 35.5345C80.2409 35.571 79.4547 35.3653 78.7636 34.9175C78.0725 34.4697 77.5202 33.82 77.1066 32.9683C76.7071 32.1161 76.4833 31.1095 76.4353 29.9485L76.43 29.8226ZM79.2739 29.9782C79.3173 31.0273 79.5543 31.8442 79.9848 32.4289C80.4293 33.013 81.0223 33.2898 81.7636 33.2591C82.6869 33.2209 83.3429 32.8224 83.7319 32.0637L83.5332 27.2588C83.0694 26.5494 82.39 26.2132 81.4947 26.2502C80.7394 26.2815 80.1646 26.6135 79.7704 27.2463C79.3902 27.8786 79.2247 28.7892 79.2739 29.9782ZM88.3357 29.3721C88.2649 28.3382 88.4146 27.3862 88.785 26.5161C89.1554 25.6461 89.7218 24.9431 90.4843 24.4071C91.2602 23.8566 92.2077 23.5581 93.3267 23.5119C94.3758 23.4685 95.3019 23.6684 96.1049 24.1115C96.9213 24.5402 97.5573 25.1794 98.0128 26.0293C98.4817 26.8647 98.7402 27.8628 98.7882 29.0238L98.7934 29.1497C98.8403 30.2828 98.6645 31.2849 98.2662 32.1561C97.8679 33.0273 97.2866 33.7099 96.5224 34.2039C95.7581 34.6979 94.8584 34.9663 93.8233 35.0092C92.8022 35.0514 91.8907 34.8649 91.0889 34.4497C90.287 34.0345 89.6455 33.4305 89.1643 32.6377C88.6966 31.8303 88.4258 30.8747 88.3522 29.7708L88.3357 29.3721ZM91.1769 29.4648C91.2226 30.5698 91.4675 31.4074 91.9114 31.9776C92.3553 32.5477 92.962 32.8169 93.7313 32.7851C94.4867 32.7538 95.0553 32.443 95.4373 31.8527C95.8332 31.2619 96.0158 30.4276 95.9853 29.35L95.9731 29.0562C95.9286 27.9791 95.684 27.1485 95.2395 26.5644C94.795 25.9803 94.1881 25.7041 93.4187 25.7359C92.6913 25.766 92.1291 26.0625 91.732 26.6254C91.349 27.1877 91.1578 27.9873 91.1587 29.0242L91.1769 29.4648ZM103.916 34.3815L101.062 34.4995L100.412 18.763L103.265 18.6449L103.916 34.3815ZM109.407 34.1543L106.554 34.2724L106.096 23.1938L108.949 23.0758L109.407 34.1543ZM105.808 20.3053C105.791 19.8856 105.916 19.5371 106.185 19.2598C106.467 18.9679 106.853 18.8118 107.343 18.7915C107.818 18.7719 108.209 18.8958 108.514 19.1634C108.819 19.4171 108.98 19.7537 108.997 20.1733C109.015 20.593 108.882 20.9487 108.6 21.2407C108.317 21.5186 107.938 21.6674 107.462 21.6871C106.973 21.7073 106.576 21.5906 106.271 21.337C105.98 21.0688 105.825 20.7249 105.808 20.3053ZM114.899 33.9272L112.045 34.0452L111.587 22.9667L114.441 22.8486L114.899 33.9272ZM111.299 20.0781C111.282 19.6585 111.408 19.31 111.676 19.0326C111.959 18.7407 112.345 18.5846 112.834 18.5644C113.31 18.5447 113.7 18.6687 114.005 18.9363C114.31 19.1899 114.471 19.5265 114.489 19.9462C114.506 20.3658 114.374 20.7216 114.091 21.0135C113.809 21.2914 113.429 21.4402 112.954 21.4599C112.464 21.4801 112.067 21.3635 111.762 21.1098C111.471 20.8417 111.317 20.4977 111.299 20.0781ZM120.39 33.7L117.537 33.818L117.078 22.7395L119.932 22.6215L120.39 33.7ZM116.791 19.8509C116.773 19.4313 116.899 19.0828 117.168 18.8055C117.45 18.5135 117.836 18.3575 118.326 18.3372C118.801 18.3175 119.192 18.4415 119.497 18.7091C119.802 18.9627 119.963 19.2994 119.98 19.719C119.997 20.1387 119.865 20.4944 119.583 20.7863C119.3 21.0643 118.921 21.2131 118.445 21.2327C117.956 21.253 117.559 21.1363 117.254 20.8827C116.962 20.6145 116.808 20.2706 116.791 19.8509ZM125.882 33.4728L123.028 33.5909L122.57 22.5124L125.423 22.3943L125.882 33.4728ZM122.282 19.6238C122.265 19.2041 122.391 18.8556 122.659 18.5783C122.941 18.2864 123.327 18.1303 123.817 18.1101C124.293 18.0904 124.683 18.2144 124.988 18.482C125.293 18.7356 125.454 19.0722 125.471 19.4919C125.489 19.9115 125.356 20.2673 125.074 20.5592C124.791 20.8371 124.412 20.9859 123.937 21.0056C123.447 21.0258 123.05 20.9091 122.745 20.6555C122.454 20.3873 122.3 20.0434 122.282 19.6238Z" fill="black"/>
</svg>
