<svg width="213" height="53" viewBox="0 0 213 53" fill="none" xmlns="http://www.w3.org/2000/svg">
<rect x="0.938354" y="0.0605469" width="212" height="52" rx="26" transform="rotate(0.120791 0.938354 0.0605469)" fill="#AFA7FF"/>
<path d="M41.9737 29.3727C41.5092 30.5617 40.9684 31.4496 40.3511 32.0363C39.7339 32.623 38.9703 32.9154 38.0603 32.9135C37.2483 32.9118 36.5489 32.6163 35.9621 32.027C35.3894 31.4378 35.1044 30.4642 35.1073 29.1062C35.1076 28.9522 35.1222 28.6933 35.1509 28.3293C35.2369 27.3775 35.4839 26.461 35.8917 25.5799C36.2996 24.6987 36.8471 23.9789 37.5343 23.4203C38.2355 22.8618 39.0201 22.5835 39.8881 22.5853C40.728 22.5871 41.4208 22.7285 41.9662 23.0097C42.5116 23.2768 42.8751 23.5156 43.0567 23.726L42.5414 29.0589C42.4987 29.4088 42.477 29.7238 42.4764 30.0038C42.4752 30.5918 42.5584 30.9699 42.726 31.1383C42.9077 31.3067 43.2015 31.3913 43.6075 31.3922C44.3215 31.3937 44.8823 31.0028 45.29 30.2197C45.7116 29.4366 45.924 28.331 45.927 26.903C45.9318 24.607 45.4035 22.8489 44.3421 21.6287C43.2806 20.4084 41.7209 19.7962 39.6629 19.7918C38.2629 19.7889 37.0231 20.1783 35.9435 20.96C34.8778 21.7417 34.0566 22.783 33.4799 24.0838C32.9032 25.3706 32.6132 26.756 32.6101 28.24C32.6051 30.634 33.1332 32.4691 34.1945 33.7453C35.2558 35.0356 36.8784 35.683 39.0624 35.6876C39.5804 35.6887 40.1686 35.6199 40.8269 35.4813C41.4851 35.3567 41.9965 35.1898 42.3609 34.9805L42.7358 36.4723C42.2592 36.7513 41.6777 36.9671 40.9914 37.1197C40.3051 37.2862 39.6259 37.3688 38.9539 37.3674C36.1259 37.3614 34.0347 36.503 32.6803 34.7921C31.3399 33.0813 30.6727 30.8189 30.6786 28.0049C30.6821 26.3669 31.0564 24.7857 31.8016 23.2613C32.5468 21.7368 33.5994 20.5 34.9594 19.5509C36.3335 18.5878 37.9095 18.1081 39.6875 18.1119C41.3955 18.1155 42.8577 18.4896 44.0741 19.2341C45.3046 19.9647 46.2264 21.0237 46.8394 22.411C47.4665 23.7843 47.7501 25.4159 47.6901 27.3058C47.6598 28.4117 47.4547 29.3913 47.0749 30.2445C46.6951 31.0837 46.1758 31.7406 45.5168 32.2152C44.8578 32.6898 44.1082 32.9332 43.2682 32.9454C42.5262 32.9439 41.8757 32.7325 41.3165 32.3113C40.7574 31.8902 40.4791 31.0986 40.4816 29.9366C40.4821 29.6706 40.4895 29.4676 40.5038 29.3276L40.9551 24.4566C40.6894 24.316 40.3535 24.2523 39.9475 24.2654C39.2335 24.2639 38.6447 24.6337 38.1812 25.3747C37.7316 26.1158 37.4495 27.1022 37.3349 28.3339C37.3205 28.5159 37.313 28.7609 37.3124 29.0689C37.3107 29.8669 37.4285 30.4201 37.6659 30.7286C37.9033 31.0231 38.2739 31.1709 38.7779 31.172C39.1979 31.1729 39.5624 30.9776 39.8712 30.5863C40.194 30.181 40.5174 29.5166 40.8414 28.5933L41.9737 29.3727ZM49.4397 27.1204C49.4422 25.9724 49.6193 24.9718 49.9711 24.1186C50.3369 23.2653 50.8493 22.6084 51.5082 22.1478C52.1672 21.6872 52.9377 21.4578 53.8197 21.4597C54.9257 21.462 55.8348 21.8769 56.5471 22.7044L56.5591 17.0134L59.3941 17.0194L59.3609 32.7694L56.7989 32.764L56.6544 31.5667C55.9384 32.5032 54.9784 32.9701 53.7744 32.9676C52.9064 32.9658 52.1439 32.7332 51.4869 32.2698C50.8299 31.7924 50.3203 31.1123 49.9582 30.2295C49.6101 29.3468 49.4372 28.3104 49.4397 27.1204ZM52.2953 27.3365C52.293 28.4285 52.4802 29.2689 52.857 29.8577C53.2338 30.4325 53.7792 30.7206 54.4932 30.7221C55.4312 30.7241 56.111 30.3195 56.5327 29.5084L56.5424 24.9304C56.1241 24.1175 55.4529 23.7101 54.5289 23.7082C53.843 23.7067 53.3034 23.9786 52.9102 24.5238C52.5311 25.055 52.3265 25.8245 52.2964 26.8325L52.2953 27.3365ZM67.9148 24.2614C67.7189 24.205 67.369 24.1762 66.865 24.1752C65.717 24.1728 64.9601 24.5912 64.5943 25.4304L64.5789 32.7804L61.7229 32.7744L61.7462 21.6864L64.4552 21.6921L64.5154 23.0572C65.1336 22.0085 65.9747 21.4853 67.0387 21.4875C67.4027 21.4883 67.7106 21.531 67.9624 21.6155L67.9148 24.2614ZM75.4272 29.7582C75.428 29.3662 75.2396 29.0578 74.8621 28.833C74.4986 28.6083 73.904 28.404 73.0784 28.2203C71.777 27.9375 70.7979 27.5225 70.141 26.9751C69.4982 26.4277 69.1776 25.7341 69.1794 24.8941C69.1808 24.2501 69.364 23.6694 69.7291 23.1522C70.1082 22.635 70.627 22.2301 71.2856 21.9375C71.9583 21.6449 72.7216 21.4995 73.5756 21.5013C74.4856 21.5032 75.2832 21.6589 75.9686 21.9684C76.668 22.2638 77.2061 22.678 77.583 23.2108C77.9738 23.7436 78.1685 24.36 78.1671 25.06L75.3321 25.054C75.3331 24.578 75.1729 24.1997 74.8515 23.919C74.5301 23.6243 74.0964 23.4764 73.5504 23.4753C73.0604 23.4742 72.6611 23.5994 72.3526 23.8507C72.0441 24.0881 71.8895 24.3958 71.8887 24.7738C71.8878 25.1798 72.0902 25.4812 72.4957 25.6781C72.9153 25.8749 73.5029 26.0652 74.2586 26.2488C74.6504 26.3336 74.9232 26.4042 75.0771 26.4605C76.1265 26.7567 76.9026 27.1643 77.4055 27.6834C77.9225 28.1885 78.1801 28.847 78.1784 29.659C78.177 30.317 77.9797 30.9046 77.5867 31.4218C77.1936 31.925 76.6468 32.3158 75.9462 32.5943C75.2596 32.8729 74.4683 33.0112 73.5723 33.0093C72.7043 33.0075 71.9066 32.8448 71.1793 32.5213C70.452 32.1978 69.8719 31.7555 69.4391 31.1946C69.0203 30.6197 68.8117 29.9823 68.8131 29.2823L71.5011 29.288C71.514 29.848 71.7091 30.2754 72.0864 30.5702C72.4778 30.865 72.9885 31.0131 73.6185 31.0144C74.1925 31.0156 74.6337 30.9046 74.9422 30.6812C75.2647 30.4439 75.4264 30.1362 75.4272 29.7582ZM86.6278 32.8269C86.5164 32.5746 86.4191 32.2174 86.3361 31.7552C85.6063 32.6077 84.6464 33.0327 83.4564 33.0302C82.7564 33.0287 82.1197 32.8874 81.5463 32.6061C80.9729 32.3109 80.5187 31.911 80.1838 31.4063C79.8629 30.8876 79.7031 30.3203 79.7044 29.7043C79.7069 28.5283 80.1498 27.6262 81.0331 26.9981C81.9304 26.3699 83.2051 26.0576 84.8571 26.0611L86.2431 26.064L86.2445 25.371C86.2457 24.797 86.0997 24.3557 85.8063 24.0471C85.513 23.7385 85.0793 23.5836 84.5053 23.5824C83.9873 23.5813 83.574 23.7134 83.2655 23.9788C82.9569 24.2301 82.8022 24.5728 82.8013 25.0068L79.9873 25.0008C79.9887 24.3568 80.1859 23.7693 80.579 23.2381C80.9861 22.7069 81.54 22.2881 82.2407 21.9816C82.9553 21.6751 83.7606 21.5228 84.6566 21.5247C86.0146 21.5275 87.0849 21.8658 87.8675 22.5395C88.6501 23.1991 89.0542 24.117 89.0797 25.293L89.0692 30.27C89.0671 31.278 89.2054 32.0763 89.4842 32.6649L89.4838 32.8329L86.6278 32.8269ZM84.0909 30.8895C84.5529 30.8905 84.9801 30.7794 85.3726 30.5562C85.7651 30.319 86.0527 30.0326 86.2354 29.697L86.2396 27.723L85.0426 27.7205C83.3906 27.717 82.5633 28.3103 82.5608 29.5003C82.5599 29.9203 82.6992 30.2566 82.9787 30.5092C83.2582 30.7618 83.6289 30.8885 84.0909 30.8895ZM101.363 27.4189C101.359 29.1829 100.971 30.5681 100.199 31.5745C99.4272 32.5668 98.3761 33.0616 97.0461 33.0588C95.8001 33.0562 94.8211 32.5851 94.1091 31.6456L93.9596 32.8423L91.3976 32.8369L91.4308 17.0869L94.2868 17.093L94.2748 22.763C94.9626 21.9524 95.8804 21.5483 97.0284 21.5508C98.3864 21.5536 99.4493 22.0599 100.217 23.0695C100.985 24.0651 101.367 25.4589 101.363 27.2509L101.363 27.4189ZM98.5075 27.1819C98.5123 24.9279 97.7797 23.7993 96.3097 23.7963C95.8757 23.7953 95.4764 23.9065 95.112 24.1297C94.7475 24.339 94.4669 24.6324 94.2701 25.01L94.2605 29.5879C94.6507 30.4008 95.3359 30.8082 96.3159 30.8103C97.0859 30.8119 97.6395 30.5191 97.9767 29.9318C98.328 29.3305 98.5049 28.4139 98.5075 27.1819ZM109.679 32.8755C109.567 32.6232 109.47 32.266 109.387 31.8038C108.657 32.6563 107.697 33.0813 106.507 33.0788C105.807 33.0773 105.17 32.936 104.597 32.6547C104.024 32.3595 103.569 31.9596 103.235 31.4549C102.914 30.9362 102.754 30.3689 102.755 29.7529C102.758 28.5769 103.2 27.6748 104.084 27.0466C104.981 26.4185 106.256 26.1062 107.908 26.1097L109.294 26.1126L109.295 25.4196C109.296 24.8456 109.15 24.4043 108.857 24.0957C108.564 23.7871 108.13 23.6322 107.556 23.631C107.038 23.6299 106.625 23.762 106.316 24.0273C106.008 24.2787 105.853 24.6214 105.852 25.0554L103.038 25.0494C103.039 24.4054 103.237 23.8179 103.63 23.2867C104.037 22.7555 104.591 22.3367 105.291 22.0302C106.006 21.7237 106.811 21.5714 107.707 21.5733C109.065 21.5761 110.136 21.9144 110.918 22.588C111.701 23.2477 112.105 24.1656 112.13 25.3416L112.12 30.3186C112.118 31.3266 112.256 32.1249 112.535 32.7135L112.535 32.8815L109.679 32.8755ZM107.142 30.9381C107.604 30.9391 108.031 30.828 108.423 30.6048C108.816 30.3676 109.103 30.0812 109.286 29.7456L109.29 27.7716L108.093 27.7691C106.441 27.7656 105.614 28.3589 105.612 29.5489C105.611 29.9689 105.75 30.3052 106.029 30.5578C106.309 30.8103 106.68 30.9371 107.142 30.9381ZM113.998 27.2355C113.972 26.1995 114.163 25.2549 114.571 24.4018C114.979 23.5486 115.575 22.8709 116.361 22.3685C117.16 21.8522 118.119 21.5952 119.239 21.5976C120.289 21.5998 121.206 21.8397 121.989 22.3174C122.786 22.7811 123.393 23.4473 123.811 24.3162C124.244 25.1711 124.458 26.1796 124.456 27.3416L124.456 27.4676C124.453 28.6016 124.234 29.5951 123.798 30.4482C123.363 31.3013 122.752 31.958 121.967 32.4184C121.182 32.8787 120.272 33.1078 119.236 33.1056C118.214 33.1034 117.311 32.8775 116.528 32.4279C115.745 31.9782 115.131 31.3469 114.684 30.534C114.252 29.7071 114.023 28.7406 113.997 27.6345L113.998 27.2355ZM116.833 27.4515C116.83 28.5575 117.039 29.405 117.457 29.9938C117.876 30.5827 118.471 30.878 119.241 30.8796C119.997 30.8812 120.578 30.5954 120.985 30.0223C121.407 29.4492 121.625 28.6236 121.642 27.5457L121.642 27.2517C121.644 26.1737 121.436 25.3332 121.018 24.7303C120.599 24.1275 120.004 23.8252 119.234 23.8236C118.506 23.822 117.932 24.0938 117.511 24.6389C117.104 25.1841 116.878 25.9746 116.834 27.0105L116.833 27.4515ZM127.162 32.9123L127.181 23.8403L125.501 23.8368L125.506 21.8208L127.186 21.8243L127.188 20.8373C127.19 19.6053 127.542 18.6541 128.244 17.9836C128.945 17.299 129.933 16.9581 131.207 16.9608C131.683 16.9618 132.18 17.0259 132.698 17.1529L132.651 19.2949C132.427 19.2384 132.119 19.2097 131.727 19.2089C131.167 19.2077 130.74 19.3468 130.445 19.6262C130.165 19.9056 130.024 20.3113 130.023 20.8433L130.021 21.8303L132.268 21.8351L132.263 23.851L130.016 23.8463L129.997 32.9183L127.162 32.9123ZM134.648 32.9281L134.667 23.8561L132.987 23.8526L132.991 21.8366L134.671 21.8401L134.673 20.8531C134.676 19.6211 135.028 18.6699 135.729 17.9993C136.431 17.3148 137.418 16.9739 138.692 16.9766C139.168 16.9776 139.665 17.0416 140.183 17.1687L140.136 19.3106C139.912 19.2542 139.605 19.2255 139.213 19.2247C138.653 19.2235 138.225 19.3626 137.931 19.642C137.65 19.9214 137.509 20.3271 137.508 20.8591L137.506 21.8461L139.753 21.8508L139.749 23.8668L137.502 23.8621L137.483 32.9341L134.648 32.9281ZM144.317 32.9485L141.461 32.9425L141.484 21.8545L144.34 21.8605L144.317 32.9485ZM141.322 18.9561C141.323 18.5361 141.464 18.1934 141.745 17.928C142.039 17.6486 142.432 17.5095 142.922 17.5105C143.398 17.5115 143.782 17.6523 144.076 17.9329C144.369 18.1996 144.515 18.5429 144.514 18.9629C144.514 19.3829 144.366 19.7326 144.071 20.0119C143.777 20.2773 143.391 20.4095 142.915 20.4085C142.425 20.4075 142.034 20.2736 141.74 20.007C141.461 19.7264 141.322 19.3761 141.322 18.9561ZM151.392 30.9474C151.952 30.9486 152.415 30.7885 152.779 30.4673C153.144 30.1321 153.334 29.7055 153.349 29.1875L156.016 29.1931C156 29.9211 155.796 30.5927 155.403 31.2078C155.01 31.809 154.462 32.2909 153.762 32.6534C153.075 33.0019 152.298 33.1753 151.43 33.1735C149.848 33.1701 148.603 32.6635 147.695 31.6536C146.787 30.6297 146.335 29.2357 146.339 27.4717L146.339 27.2407C146.341 26.1627 146.539 25.2041 146.933 24.365C147.327 23.5258 147.902 22.869 148.659 22.3946C149.43 21.9062 150.355 21.6632 151.433 21.6655C152.805 21.6683 153.903 22.0627 154.727 22.8484C155.566 23.6202 155.998 24.6571 156.023 25.9591L153.356 25.9535C153.343 25.3235 153.155 24.8261 152.792 24.4613C152.429 24.0826 151.96 23.8926 151.386 23.8914C149.93 23.8883 149.193 25.0067 149.174 27.2467L149.173 27.5827C149.157 28.7307 149.33 29.578 149.693 30.1248C150.07 30.6716 150.636 30.9458 151.392 30.9474ZM160.764 32.9832L157.908 32.9771L157.932 21.8892L160.788 21.8952L160.764 32.9832ZM157.77 18.9908C157.771 18.5708 157.911 18.2281 158.192 17.9627C158.486 17.6833 158.879 17.5441 159.369 17.5452C159.845 17.5462 160.229 17.687 160.523 17.9676C160.816 18.2342 160.963 18.5775 160.962 18.9975C160.961 19.4175 160.813 19.7672 160.518 20.0466C160.224 20.312 159.839 20.4442 159.363 20.4432C158.873 20.4421 158.481 20.3083 158.187 20.0417C157.908 19.7611 157.769 19.4108 157.77 18.9908ZM169.725 33.002C169.614 32.7498 169.517 32.3926 169.434 31.9304C168.704 32.7829 167.744 33.2079 166.554 33.2054C165.854 33.2039 165.217 33.0625 164.644 32.7813C164.07 32.4861 163.616 32.0862 163.281 31.5815C162.96 31.0628 162.801 30.4954 162.802 29.8794C162.804 28.7034 163.247 27.8014 164.131 27.1732C165.028 26.5451 166.303 26.2328 167.955 26.2363L169.341 26.2392L169.342 25.5462C169.343 24.9722 169.197 24.5309 168.904 24.2223C168.61 23.9137 168.177 23.7588 167.603 23.7575C167.085 23.7565 166.671 23.8886 166.363 24.1539C166.054 24.4053 165.9 24.748 165.899 25.182L163.085 25.176C163.086 24.532 163.283 23.9444 163.676 23.4133C164.084 22.8821 164.637 22.4633 165.338 22.1568C166.053 21.8503 166.858 21.698 167.754 21.6999C169.112 21.7027 170.182 22.041 170.965 22.7146C171.748 23.3743 172.152 24.2921 172.177 25.4682L172.167 30.4452C172.165 31.4532 172.303 32.2515 172.582 32.8401L172.581 33.0081L169.725 33.002ZM167.188 31.0647C167.65 31.0657 168.078 30.9546 168.47 30.7314C168.863 30.4942 169.15 30.2078 169.333 29.8722L169.337 27.8982L168.14 27.8957C166.488 27.8922 165.661 28.4855 165.658 29.6755C165.657 30.0955 165.797 30.4318 166.076 30.6843C166.356 30.9369 166.726 31.0637 167.188 31.0647ZM177.519 33.0185L174.663 33.0125L174.696 17.2625L177.552 17.2685L177.519 33.0185Z" fill="black"/>
</svg>
