<svg width="213" height="54" viewBox="0 0 213 54" fill="none" xmlns="http://www.w3.org/2000/svg">
<rect x="0.878448" y="0.744141" width="212" height="52" rx="26" transform="rotate(0.120791 0.878448 0.744141)" fill="#AFA7FF"/>
<path d="M59.4564 29.1061C58.9918 30.2951 58.451 31.183 57.8337 31.7697C57.2165 32.3564 56.4529 32.6488 55.5429 32.6469C54.7309 32.6452 54.0315 32.3497 53.4447 31.7605C52.872 31.1712 52.587 30.1976 52.5899 28.8396C52.5902 28.6856 52.6048 28.4267 52.6335 28.0627C52.7195 27.1109 52.9665 26.1944 53.3743 25.3133C53.7822 24.4322 54.3297 23.7123 55.0169 23.1538C55.7181 22.5952 56.5027 22.3169 57.3707 22.3187C58.2107 22.3205 58.9034 22.4619 59.4488 22.7431C59.9942 23.0102 60.3577 23.249 60.5393 23.4594L60.024 28.7923C59.9813 29.1422 59.9596 29.4572 59.959 29.7372C59.9578 30.3252 60.041 30.7034 60.2086 30.8717C60.3903 31.0401 60.6841 31.1247 61.0901 31.1256C61.8041 31.1271 62.3649 30.7363 62.7726 29.9531C63.1942 29.17 63.4066 28.0644 63.4096 26.6365C63.4144 24.3405 62.8861 22.5823 61.8247 21.3621C60.7633 20.1419 59.2035 19.5296 57.1455 19.5252C55.7455 19.5223 54.5057 19.9117 53.4261 20.6934C52.3604 21.4751 51.5392 22.5164 50.9625 23.8172C50.3858 25.104 50.0958 26.4894 50.0927 27.9734C50.0877 30.3674 50.6158 32.2025 51.6771 33.4787C52.7384 34.769 54.361 35.4164 56.545 35.421C57.063 35.4221 57.6512 35.3533 58.3095 35.2147C58.9677 35.0901 59.4791 34.9232 59.8435 34.714L60.2184 36.2057C59.7418 36.4847 59.1603 36.7005 58.474 36.8531C57.7877 37.0196 57.1085 37.1022 56.4365 37.1008C53.6085 37.0948 51.5173 36.2364 50.1629 34.5255C48.8225 32.8147 48.1553 30.5523 48.1612 27.7383C48.1647 26.1003 48.539 24.5191 49.2842 22.9947C50.0294 21.4702 51.082 20.2334 52.442 19.2843C53.8161 18.3212 55.3921 17.8415 57.1701 17.8453C58.8781 17.8489 60.3403 18.223 61.5567 18.9675C62.7872 19.6981 63.709 20.7571 64.322 22.1444C64.9491 23.5177 65.2327 25.1493 65.1727 27.0392C65.1424 28.1451 64.9373 29.1247 64.5575 29.9779C64.1778 30.8171 63.6584 31.474 62.9994 31.9486C62.3404 32.4232 61.5909 32.6666 60.7508 32.6789C60.0088 32.6773 59.3583 32.4659 58.7992 32.0447C58.24 31.6236 57.9617 30.832 57.9642 29.67C57.9647 29.404 57.9721 29.201 57.9864 29.061L58.4377 24.19C58.172 24.0494 57.8361 23.9857 57.4301 23.9988C56.7161 23.9973 56.1273 24.3671 55.6638 25.1081C55.2142 25.8492 54.9321 26.8356 54.8175 28.0673C54.8031 28.2493 54.7956 28.4943 54.795 28.8023C54.7933 29.6003 54.9111 30.1535 55.1485 30.462C55.3859 30.7565 55.7566 30.9043 56.2606 30.9054C56.6806 30.9063 57.045 30.711 57.3538 30.3197C57.6766 29.9144 58 29.2501 58.324 28.3267L59.4564 29.1061ZM70.3965 32.4892L67.5405 32.4832L67.5639 21.3952L70.4199 21.4012L70.3965 32.4892ZM67.402 18.4969C67.4029 18.0769 67.5436 17.7341 67.8241 17.4687C68.1187 17.1894 68.511 17.0502 69.001 17.0512C69.477 17.0522 69.8617 17.193 70.1551 17.4737C70.4486 17.7403 70.5948 18.0836 70.594 18.5036C70.5931 18.9236 70.4453 19.2733 70.1507 19.5526C69.8562 19.818 69.4709 19.9502 68.9949 19.9492C68.5049 19.9482 68.1132 19.8144 67.8198 19.5477C67.5403 19.2671 67.4011 18.9169 67.402 18.4969ZM79.0605 23.9814C78.8646 23.925 78.5147 23.8963 78.0107 23.8952C76.8627 23.8928 76.1058 24.3112 75.7401 25.1504L75.7246 32.5004L72.8686 32.4944L72.8919 21.4064L75.6009 21.4121L75.6611 22.7773C76.2793 21.7286 77.1204 21.2053 78.1844 21.2076C78.5484 21.2084 78.8563 21.251 79.1081 21.3355L79.0605 23.9814ZM86.6583 32.5235C86.5468 32.2712 86.4496 31.914 86.3666 31.4519C85.6368 32.3043 84.6769 32.7293 83.4869 32.7268C82.7869 32.7253 82.1502 32.584 81.5768 32.3028C81.0034 32.0076 80.5492 31.6076 80.2143 31.1029C79.8934 30.5842 79.7336 30.0169 79.7349 29.4009C79.7374 28.2249 80.1803 27.3228 81.0636 26.6947C81.9609 26.0666 83.2356 25.7542 84.8876 25.7577L86.2736 25.7607L86.275 25.0677C86.2762 24.4937 86.1302 24.0523 85.8368 23.7437C85.5435 23.4351 85.1098 23.2802 84.5358 23.279C84.0178 23.2779 83.6045 23.41 83.296 23.6754C82.9874 23.9267 82.8327 24.2694 82.8318 24.7034L80.0178 24.6975C80.0192 24.0535 80.2164 23.4659 80.6095 22.9347C81.0166 22.4036 81.5705 21.9847 82.2712 21.6782C82.9858 21.3717 83.7911 21.2194 84.6871 21.2213C86.0451 21.2242 87.1154 21.5624 87.898 22.2361C88.6806 22.8957 89.0847 23.8136 89.1102 24.9896L89.0997 29.9666C89.0976 30.9746 89.2359 31.7729 89.5147 32.3615L89.5143 32.5295L86.6583 32.5235ZM84.1214 30.5861C84.5834 30.5871 85.0106 30.476 85.4031 30.2528C85.7956 30.0157 86.0832 29.7293 86.2659 29.3936L86.2701 27.4196L85.0731 27.4171C83.4211 27.4136 82.5938 28.0069 82.5913 29.1969C82.5904 29.6169 82.7297 29.9532 83.0092 30.2058C83.2887 30.4584 83.6594 30.5852 84.1214 30.5861ZM94.0765 21.4511L94.1786 22.7953C94.9648 21.761 96.0369 21.2452 97.3949 21.2481C99.7049 21.253 100.871 22.6134 100.893 25.3295L100.878 32.5535L98.0431 32.5475L98.0581 25.4075C98.0455 24.7355 97.8996 24.2522 97.6202 23.9576C97.3548 23.649 96.8932 23.494 96.2352 23.4926C95.7872 23.4917 95.3879 23.5959 95.0375 23.8051C94.7011 24.0144 94.4344 24.3079 94.2376 24.6854L94.2211 32.5394L91.3861 32.5334L91.4095 21.4455L94.0765 21.4511ZM106.183 32.5646L103.327 32.5586L103.35 21.4706L106.206 21.4767L106.183 32.5646ZM103.188 18.5723C103.189 18.1523 103.33 17.8096 103.61 17.5442C103.905 17.2648 104.297 17.1256 104.787 17.1267C105.263 17.1277 105.648 17.2685 105.941 17.5491C106.235 17.8157 106.381 18.159 106.38 18.579C106.379 18.999 106.231 19.3487 105.937 19.6281C105.642 19.8935 105.257 20.0257 104.781 20.0247C104.291 20.0236 103.899 19.8898 103.606 19.6232C103.326 19.3426 103.187 18.9923 103.188 18.5723ZM111.112 32.575C110.58 32.5739 110.132 32.391 109.769 32.0262C109.42 31.6615 109.245 31.2131 109.247 30.6811C109.248 30.1491 109.424 29.7085 109.774 29.3592C110.139 29.01 110.587 28.8359 111.119 28.837C111.651 28.8382 112.092 29.0211 112.441 29.3858C112.805 29.7366 112.986 30.171 112.985 30.689C112.983 31.221 112.801 31.6686 112.436 32.0318C112.085 32.3951 111.644 32.5762 111.112 32.575ZM122.362 32.5987C122.251 32.3465 122.154 31.9893 122.071 31.5271C121.341 32.3796 120.381 32.8046 119.191 32.8021C118.491 32.8006 117.854 32.6592 117.281 32.378C116.707 32.0828 116.253 31.6829 115.918 31.1782C115.597 30.6595 115.438 30.0921 115.439 29.4761C115.441 28.3001 115.884 27.3981 116.768 26.7699C117.665 26.1418 118.94 25.8295 120.592 25.833L121.978 25.8359L121.979 25.1429C121.98 24.5689 121.834 24.1276 121.541 23.819C121.247 23.5104 120.814 23.3555 120.24 23.3543C119.722 23.3532 119.309 23.4853 119 23.7506C118.691 24.002 118.537 24.3447 118.536 24.7787L115.722 24.7727C115.723 24.1287 115.92 23.5411 116.314 23.01C116.721 22.4788 117.275 22.06 117.975 21.7535C118.69 21.447 119.495 21.2947 120.391 21.2966C121.749 21.2994 122.819 21.6377 123.602 22.3113C124.385 22.971 124.789 23.8888 124.814 25.0649L124.804 30.0419C124.802 31.0499 124.94 31.8482 125.219 32.4368L125.218 32.6048L122.362 32.5987ZM119.825 30.6614C120.287 30.6624 120.715 30.5513 121.107 30.3281C121.5 30.0909 121.787 29.8045 121.97 29.4689L121.974 27.4949L120.777 27.4924C119.125 27.4889 118.298 28.0822 118.295 29.2722C118.294 29.6922 118.434 30.0285 118.713 30.2811C118.993 30.5336 119.363 30.6604 119.825 30.6614ZM133.324 24.0958C133.128 24.0394 132.778 24.0107 132.274 24.0096C131.126 24.0072 130.369 24.4256 130.004 25.2648L129.988 32.6148L127.132 32.6088L127.155 21.5208L129.864 21.5265L129.925 22.8917C130.543 21.843 131.384 21.3197 132.448 21.322C132.812 21.3228 133.12 21.3654 133.372 21.4499L133.324 24.0958ZM140.922 32.6379C140.81 32.3856 140.713 32.0284 140.63 31.5663C139.9 32.4187 138.94 32.8437 137.75 32.8412C137.05 32.8397 136.414 32.6984 135.84 32.4172C135.267 32.122 134.813 31.722 134.478 31.2173C134.157 30.6986 133.997 30.1313 133.998 29.5153C134.001 28.3393 134.444 27.4372 135.327 26.8091C136.224 26.181 137.499 25.8686 139.151 25.8721L140.537 25.875L140.539 25.1821C140.54 24.6081 140.394 24.1667 140.1 23.8581C139.807 23.5495 139.373 23.3946 138.799 23.3934C138.281 23.3923 137.868 23.5244 137.56 23.7898C137.251 24.0411 137.096 24.3838 137.095 24.8178L134.281 24.8119C134.283 24.1679 134.48 23.5803 134.873 23.0491C135.28 22.518 135.834 22.0991 136.535 21.7926C137.249 21.4861 138.055 21.3338 138.951 21.3357C140.309 21.3386 141.379 21.6768 142.162 22.3505C142.944 23.0101 143.348 23.928 143.374 25.104L143.363 30.081C143.361 31.089 143.499 31.8873 143.778 32.4759L143.778 32.6439L140.922 32.6379ZM138.385 30.7005C138.847 30.7015 139.274 30.5904 139.667 30.3672C140.059 30.1301 140.347 29.8437 140.529 29.508L140.534 27.534L139.337 27.5315C137.685 27.528 136.857 28.1213 136.855 29.3113C136.854 29.7313 136.993 30.0676 137.273 30.3202C137.552 30.5728 137.923 30.6995 138.385 30.7005ZM155.657 27.2299C155.653 28.9939 155.265 30.3791 154.493 31.3855C153.721 32.3779 152.67 32.8726 151.34 32.8698C150.094 32.8672 149.115 32.3961 148.403 31.4566L148.254 32.6533L145.692 32.6479L145.725 16.898L148.581 16.904L148.569 22.574C149.257 21.7634 150.174 21.3594 151.322 21.3618C152.68 21.3646 153.743 21.8709 154.511 22.8805C155.279 23.8761 155.661 25.2699 155.657 27.0619L155.657 27.2299ZM152.802 26.9929C152.806 24.7389 152.074 23.6104 150.604 23.6073C150.17 23.6064 149.77 23.7175 149.406 23.9407C149.042 24.15 148.761 24.4434 148.564 24.821L148.554 29.399C148.945 30.2118 149.63 30.6192 150.61 30.6213C151.38 30.6229 151.934 30.3301 152.271 29.7428C152.622 29.1415 152.799 28.2249 152.802 26.9929ZM160.508 32.6792L157.652 32.6731L157.675 21.5852L160.531 21.5912L160.508 32.6792ZM157.513 18.6868C157.514 18.2668 157.655 17.9241 157.935 17.6587C158.23 17.3793 158.622 17.2402 159.112 17.2412C159.588 17.2422 159.973 17.383 160.266 17.6636C160.56 17.9302 160.706 18.2736 160.705 18.6936C160.704 19.1136 160.556 19.4632 160.262 19.7426C159.967 20.008 159.582 20.1402 159.106 20.1392C158.616 20.1382 158.224 20.0043 157.931 19.7377C157.651 19.4571 157.512 19.1068 157.513 18.6868ZM167.583 30.6781C168.143 30.6793 168.605 30.5192 168.97 30.198C169.335 29.8628 169.525 29.4362 169.54 28.9182L172.207 28.9238C172.191 29.6518 171.987 30.3234 171.593 30.9385C171.2 31.5397 170.653 32.0216 169.952 32.3841C169.266 32.7326 168.488 32.906 167.62 32.9042C166.038 32.9008 164.793 32.3942 163.885 31.3843C162.978 30.3604 162.526 28.9664 162.529 27.2024L162.53 26.9714C162.532 25.8934 162.73 24.9348 163.124 24.0957C163.518 23.2565 164.093 22.5997 164.85 22.1253C165.621 21.6369 166.546 21.3939 167.623 21.3961C168.995 21.399 170.094 21.7934 170.918 22.5791C171.756 23.3509 172.188 24.3878 172.213 25.6898L169.546 25.6842C169.534 25.0542 169.346 24.5568 168.983 24.192C168.619 23.8132 168.151 23.6233 167.577 23.6221C166.121 23.619 165.383 24.7374 165.365 26.9774L165.364 27.3134C165.348 28.4614 165.521 29.3087 165.884 29.8555C166.261 30.4023 166.827 30.6765 167.583 30.6781Z" fill="black"/>
</svg>
