<svg width="139" height="168" viewBox="0 0 139 168" fill="none" xmlns="http://www.w3.org/2000/svg">
<g clip-path="url(#clip0_5_256)">
<path d="M0.981838 24.5928C18.7993 21.9407 60.5752 43.7735 80.8767 65.7389C102.874 89.4313 110.627 106.414 117.66 147.003C119.465 145.18 120.778 143.539 122.205 142.274C123.769 140.766 125.437 139.187 127.291 138.087C127.815 137.733 129.413 138.015 129.954 138.557C130.495 139.099 130.488 140.614 130.11 141.172C126.388 146.403 122.52 151.43 118.621 156.63C117.308 158.271 115.614 158.508 113.854 157.126C107.451 151.623 100.944 146.191 94.5738 140.516C93.1688 139.197 92.2794 137.077 90.8254 135.036C96.4952 133.628 98.5884 137.656 101.631 139.532C104.852 141.439 107.694 143.904 111.496 146.628C111.331 134.197 108.892 123.149 104.727 112.51C89.6207 73.4396 60.6837 47.6291 21.4713 32.2269C16.3388 30.2497 11.0052 28.8615 5.84056 27.057C4.51684 26.2879 3.26579 25.6208 0.981838 24.5928Z" fill="#D4E32D"/>
</g>
<defs>
<clipPath id="clip0_5_256">
<rect width="175.519" height="42.7957" fill="white" transform="matrix(0.58018 0.814488 -0.828973 0.559289 36.4583 0.657715)"/>
</clipPath>
</defs>
</svg>
