<svg width="215" height="62" viewBox="0 0 215 62" fill="none" xmlns="http://www.w3.org/2000/svg">
<rect x="0.687424" y="9.66406" width="212" height="52" rx="26" transform="rotate(-2.36874 0.687424 9.66406)" fill="#AFA7FF"/>
<path d="M39.2087 36.7351C38.7962 37.9432 38.2944 38.8537 37.7033 39.4667C37.1121 40.0797 36.3619 40.4049 35.4527 40.4426C34.6414 40.4761 33.9298 40.2113 33.318 39.6481C32.7202 39.0843 32.3932 38.124 32.3371 36.7672C32.3307 36.6133 32.334 36.354 32.347 35.9891C32.3915 35.0345 32.5984 34.1081 32.9676 33.2101C33.3368 32.3121 33.8526 31.5691 34.5148 30.9812C35.1911 30.3928 35.9629 30.0806 36.8301 30.0447C37.6694 30.01 38.3676 30.1213 38.9247 30.3785C39.4812 30.6217 39.8547 30.8444 40.0453 31.0467L39.7622 36.397C39.7347 36.7484 39.7267 37.064 39.7383 37.3438C39.7626 37.9313 39.8621 38.3055 40.0369 38.4664C40.2257 38.6267 40.5229 38.6985 40.9286 38.6817C41.642 38.6522 42.1853 38.2374 42.5585 37.4373C42.9458 36.6366 43.1099 35.5229 43.0509 34.0961C42.956 31.8021 42.3518 30.0685 41.2384 28.8956C40.1249 27.7226 38.5401 27.1786 36.4839 27.2637C35.0851 27.3215 33.8633 27.7644 32.8187 28.5923C31.788 29.4196 31.0128 30.4956 30.4931 31.8202C29.9728 33.1308 29.7433 34.5275 29.8047 36.0102C29.9036 38.4022 30.511 40.2126 31.6267 41.4415C32.743 42.6845 34.3923 43.2608 36.5744 43.1705C37.0919 43.1491 37.6765 43.0549 38.3282 42.8878C38.9804 42.7347 39.4841 42.5457 39.8391 42.3209L40.2784 43.795C39.8143 44.0944 39.2428 44.3352 38.5638 44.5175C37.8853 44.7137 37.2103 44.8257 36.5389 44.8534C33.7133 44.9703 31.5868 44.2035 30.1594 42.5531C28.7459 40.9021 27.9811 38.6708 27.8648 35.8593C27.7971 34.2227 28.1024 32.6267 28.7807 31.0713C29.459 29.5159 30.4568 28.2346 31.7743 27.2273C33.1052 26.2054 34.6589 25.6577 36.4354 25.5842C38.142 25.5136 39.619 25.8239 40.8667 26.5149C42.1277 27.1913 43.0946 28.2093 43.7674 29.5686C44.4535 30.9134 44.8077 32.5311 44.8299 34.4218C44.8476 35.5281 44.6853 36.5156 44.3429 37.3845C43.9999 38.2394 43.5096 38.9183 42.8718 39.421C42.234 39.9238 41.4958 40.1996 40.6571 40.2483C39.9157 40.279 39.2566 40.096 38.6797 39.6995C38.1028 39.303 37.7904 38.5243 37.7424 37.3633C37.7314 37.0975 37.73 36.8944 37.7382 36.7539L37.9774 31.8679C37.7059 31.739 37.3676 31.6899 36.9625 31.7207C36.2491 31.7502 35.6769 32.1452 35.246 32.9057C34.829 33.6655 34.5901 34.6633 34.5291 35.8988C34.5226 36.0813 34.5258 36.3263 34.5385 36.6341C34.5715 37.4314 34.7132 37.979 34.9638 38.2769C35.2137 38.5608 35.5905 38.6924 36.094 38.6715C36.5137 38.6542 36.8693 38.4433 37.1608 38.0389C37.4657 37.6199 37.76 36.9422 38.0435 36.0057L39.2087 36.7351ZM53.7474 39.4966C53.6251 39.2495 53.5125 38.8968 53.4094 38.4387C52.7174 39.322 51.7768 39.7883 50.5878 39.8375C49.8884 39.8664 49.2462 39.7529 48.6611 39.4968C48.0755 39.2268 47.6043 38.847 47.2478 38.3573C46.9047 37.853 46.7204 37.2932 46.6949 36.6777C46.6463 35.5027 47.0496 34.5822 47.9048 33.9163C48.774 33.2498 50.0339 32.8824 51.6845 32.8142L53.0693 32.7569L53.0407 32.0645C53.0169 31.491 52.8518 31.0564 52.5454 30.7608C52.2389 30.4652 51.7989 30.3293 51.2254 30.353C50.7078 30.3744 50.3007 30.5244 50.0039 30.8029C49.7066 31.0674 49.5669 31.4165 49.5849 31.8501L46.7733 31.9664C46.7466 31.323 46.9182 30.7274 47.2879 30.1796C47.6715 29.6313 48.2067 29.1888 48.8934 28.8521C49.594 28.5149 50.392 28.3278 51.2872 28.2907C52.644 28.2346 53.728 28.526 54.5391 29.1651C55.3496 29.7901 55.7932 30.6895 55.8698 31.8634L56.0755 36.8361C56.1171 37.8433 56.29 38.6348 56.5941 39.2107L56.601 39.3786L53.7474 39.4966ZM51.1288 37.6713C51.5904 37.6522 52.0124 37.5226 52.3948 37.2826C52.7766 37.0286 53.0515 36.73 53.2195 36.3868L53.1379 34.4145L51.9419 34.4639C50.2913 34.5322 49.4906 35.1608 49.5398 36.3498C49.5572 36.7695 49.7109 37.0994 50.0011 37.3396C50.2913 37.5798 50.6672 37.6904 51.1288 37.6713ZM59.3524 39.2648L58.9775 30.2005L57.2989 30.2699L57.2156 28.2557L58.8942 28.1862L58.8534 27.2001C58.8025 25.9691 59.1128 25.0035 59.7844 24.3031C60.4555 23.5888 61.4275 23.2053 62.7004 23.1526C63.176 23.1329 63.6752 23.1753 64.1979 23.2798L64.2445 25.4217C64.0184 25.375 63.7095 25.3598 63.3178 25.376C62.7583 25.3991 62.3374 25.5567 62.0553 25.8486C61.7871 26.1399 61.664 26.5514 61.686 27.0829L61.7267 28.0691L63.9718 27.9762L64.0552 29.9905L61.8101 30.0833L62.185 39.1476L59.3524 39.2648ZM68.8621 25.0416L68.9749 27.7692L70.9053 27.6894L70.9886 29.7037L69.0582 29.7835L69.2978 35.5746C69.3157 36.0082 69.4127 36.3194 69.5886 36.5083C69.764 36.6832 70.0685 36.7617 70.5021 36.7438C70.698 36.7357 70.9906 36.6955 71.3799 36.6234L71.4667 38.7216C70.9141 38.9126 70.3371 39.0205 69.7356 39.0454C67.6514 39.1316 66.5647 38.0977 66.4756 35.9435L66.2256 29.9007L64.5681 29.9692L64.4847 27.955L66.1423 27.8864L66.0295 25.1587L68.8621 25.0416ZM79.5447 38.4295C79.4224 38.1823 79.3097 37.8297 79.2067 37.3715C78.5146 38.2549 77.5741 38.7212 76.3851 38.7704C75.6857 38.7993 75.0435 38.6857 74.4584 38.4297C73.8727 38.1597 73.4016 37.7798 73.0451 37.2901C72.7019 36.7859 72.5176 36.226 72.4922 35.6106C72.4436 34.4356 72.8469 33.5151 73.7021 32.8492C74.5713 32.1827 75.8312 31.8153 77.4818 31.747L78.8666 31.6898L78.8379 30.9973C78.8142 30.4238 78.6491 29.9893 78.3426 29.6937C78.0362 29.3981 77.5962 29.2622 77.0227 29.2859C76.5051 29.3073 76.098 29.4573 75.8012 29.7358C75.5039 30.0003 75.3642 30.3494 75.3821 30.783L72.5705 30.8993C72.5439 30.2558 72.7154 29.6602 73.0851 29.1125C73.4688 28.5642 74.004 28.1217 74.6906 27.785C75.3913 27.4478 76.1892 27.2606 77.0845 27.2236C78.4413 27.1675 79.5253 27.4589 80.3364 28.0979C81.1469 28.723 81.5905 29.6224 81.6671 30.7962L81.8728 35.769C81.9144 36.7761 82.0873 37.5677 82.3913 38.1436L82.3983 38.3114L79.5447 38.4295ZM76.926 36.6042C77.3876 36.5851 77.8097 36.4555 78.1921 36.2155C78.5739 35.9615 78.8488 35.6629 79.0167 35.3196L78.9352 33.3473L77.7392 33.3968C76.0886 33.4651 75.2879 34.0937 75.3371 35.2827C75.3544 35.7023 75.5082 36.0323 75.7984 36.2725C76.0885 36.5127 76.4644 36.6232 76.926 36.6042ZM94.0311 32.3866C94.104 34.1491 93.7767 35.5498 93.049 36.5888C92.3207 37.6137 91.2922 38.1537 89.9633 38.2087C88.7184 38.2602 87.7198 37.8321 86.9676 36.9244L86.8702 38.1265L84.3104 38.2323L83.6595 22.4958L86.513 22.3778L86.7474 28.0429C87.3992 27.2033 88.2987 26.7597 89.4457 26.7123C90.8025 26.6561 91.8865 27.1157 92.6975 28.091C93.5079 29.0524 93.9501 30.4283 94.0242 32.2187L94.0311 32.3866ZM91.168 32.2738C91.0749 30.0218 90.2939 28.9261 88.8252 28.9868C88.3915 29.0048 87.9975 29.1332 87.6431 29.372C87.2881 29.5969 87.0205 29.9022 86.8403 30.288L87.0295 34.8621C87.4547 35.6572 88.1569 36.0345 89.136 35.994C89.9054 35.9622 90.4458 35.6456 90.7572 35.0442C91.082 34.4282 91.2189 33.5048 91.168 32.2738ZM95.4375 32.0762C95.3906 30.9432 95.5387 29.9492 95.8816 29.0943C96.224 28.2254 96.7217 27.5533 97.3746 27.0779C98.0269 26.5885 98.7937 26.3256 99.6749 26.2891C100.92 26.2376 101.903 26.6243 102.623 27.4492L102.684 26.3748L105.265 26.2681L105.708 36.9899C105.736 37.6473 105.603 38.3394 105.311 39.0661C105.019 39.8068 104.492 40.4521 103.73 41.0021C102.969 41.566 101.938 41.8749 100.637 41.9287C99.8258 41.9623 99.0289 41.8341 98.2462 41.5442C97.4776 41.2537 96.8794 40.8511 96.4518 40.3363L97.6622 38.6048C98.3829 39.4297 99.3028 39.8191 100.422 39.7728C101.247 39.7386 101.867 39.4888 102.282 39.0232C102.698 38.5717 102.889 37.9262 102.854 37.087L102.83 36.4995C102.163 37.3117 101.263 37.7413 100.13 37.7881C99.2483 37.8246 98.4622 37.6189 97.7711 37.1711C97.08 36.7233 96.5276 36.0736 96.1141 35.2219C95.7145 34.3697 95.4907 33.3631 95.4427 32.2021L95.4375 32.0762ZM98.2814 32.2318C98.3248 33.2809 98.5617 34.0978 98.9923 34.6825C99.4368 35.2666 100.03 35.5434 100.771 35.5127C101.694 35.4745 102.35 35.076 102.739 34.3173L102.541 29.5124C102.077 28.803 101.397 28.4668 100.502 28.5038C99.7468 28.5351 99.1721 28.8671 98.7779 29.4999C98.3977 30.1322 98.2322 31.0428 98.2814 32.2318ZM114.522 36.9826C114.399 36.7355 114.287 36.3828 114.184 35.9247C113.492 36.8081 112.551 37.2743 111.362 37.3235C110.663 37.3524 110.02 37.2389 109.435 36.9829C108.85 36.7128 108.379 36.333 108.022 35.8433C107.679 35.339 107.495 34.7792 107.469 34.1637C107.421 32.9887 107.824 32.0683 108.679 31.4023C109.548 30.7358 110.808 30.3685 112.459 30.3002L113.844 30.2429L113.815 29.5505C113.791 28.977 113.626 28.5424 113.32 28.2468C113.013 27.9513 112.573 27.8153 112 27.8391C111.482 27.8605 111.075 28.0104 110.778 28.2889C110.481 28.5534 110.341 28.9025 110.359 29.3361L107.547 29.4524C107.521 28.809 107.692 28.2134 108.062 27.6656C108.446 27.1173 108.981 26.6748 109.668 26.3382C110.368 26.0009 111.166 25.8138 112.061 25.7767C113.418 25.7206 114.502 26.0121 115.313 26.6511C116.124 27.2761 116.567 28.1756 116.644 29.3494L116.85 34.3221C116.891 35.3293 117.064 36.1208 117.368 36.6967L117.375 36.8646L114.522 36.9826ZM111.903 35.1573C112.365 35.1382 112.787 35.0087 113.169 34.7686C113.551 34.5146 113.826 34.216 113.994 33.8728L113.912 31.9005L112.716 31.95C111.066 32.0182 110.265 32.6469 110.314 33.8358C110.331 34.2555 110.485 34.5854 110.775 34.8256C111.065 35.0658 111.441 35.1764 111.903 35.1573ZM125.104 28.0116C124.906 27.9637 124.555 27.9502 124.051 27.9711C122.904 28.0185 122.166 28.4694 121.837 29.3237L122.141 36.6674L119.287 36.7855L118.829 25.707L121.536 25.595L121.655 26.9562C122.227 25.8817 123.045 25.3224 124.108 25.2784C124.472 25.2634 124.781 25.2926 125.036 25.3661L125.104 28.0116ZM126.031 30.8737C125.984 29.7267 126.117 28.7193 126.432 27.8516C126.76 26.9833 127.243 26.3047 127.882 25.8159C128.52 25.3271 129.28 25.0645 130.161 25.028C131.266 24.9823 132.192 25.3574 132.94 26.1531L132.705 20.467L135.537 20.3498L136.188 36.0864L133.628 36.1923L133.432 35.0024C132.757 35.9691 131.819 36.4773 130.616 36.5271C129.748 36.5629 128.977 36.3637 128.3 35.9293C127.623 35.4809 127.084 34.8236 126.684 33.9574C126.298 33.0906 126.08 32.0627 126.031 30.8737ZM128.893 30.9655C128.938 32.0566 129.162 32.888 129.564 33.4599C129.965 34.0178 130.523 34.282 131.236 34.2525C132.173 34.2137 132.835 33.78 133.221 32.9513L133.032 28.3772C132.579 27.5833 131.891 27.2054 130.967 27.2436C130.282 27.2719 129.755 27.567 129.386 28.1287C129.03 28.6759 128.859 29.4536 128.873 30.4619L128.893 30.9655ZM145.032 35.7206C144.909 35.4734 144.797 35.1208 144.694 34.6626C144.002 35.546 143.061 36.0122 141.872 36.0614C141.173 36.0904 140.53 35.9768 139.945 35.7208C139.36 35.4507 138.889 35.0709 138.532 34.5812C138.189 34.077 138.005 33.5171 137.979 32.9016C137.931 31.7266 138.334 30.8062 139.189 30.1403C140.058 29.4738 141.318 29.1064 142.969 29.0381L144.354 28.9808L144.325 28.2884C144.301 27.7149 144.136 27.2804 143.83 26.9848C143.523 26.6892 143.083 26.5533 142.51 26.577C141.992 26.5984 141.585 26.7483 141.288 27.0268C140.991 27.2914 140.851 27.6404 140.869 28.0741L138.057 28.1904C138.031 27.5469 138.202 26.9513 138.572 26.4036C138.956 25.8552 139.491 25.4127 140.178 25.0761C140.878 24.7388 141.676 24.5517 142.571 24.5147C143.928 24.4585 145.012 24.75 145.823 25.389C146.634 26.014 147.077 26.9135 147.154 28.0873L147.36 33.0601C147.401 34.0672 147.574 34.8587 147.878 35.4347L147.885 35.6025L145.032 35.7206ZM142.413 33.8952C142.875 33.8761 143.297 33.7466 143.679 33.5066C144.061 33.2526 144.336 32.954 144.504 32.6107L144.422 30.6384L143.226 30.6879C141.576 30.7562 140.775 31.3848 140.824 32.5738C140.841 32.9934 140.995 33.3233 141.285 33.5635C141.576 33.8038 141.951 33.9143 142.413 33.8952ZM151.962 24.3364L152.122 25.6749C152.863 24.6074 153.912 24.0456 155.268 23.9894C157.576 23.894 158.801 25.2025 158.941 27.915L159.239 35.1328L156.407 35.25L156.112 28.1161C156.07 27.4453 155.903 26.9688 155.611 26.6866C155.333 26.3898 154.865 26.2551 154.207 26.2823C153.76 26.3008 153.365 26.4222 153.024 26.6465C152.697 26.8702 152.444 27.1749 152.263 27.5607L152.588 35.408L149.755 35.5251L149.297 24.4466L151.962 24.3364ZM163.973 34.937C163.441 34.959 162.986 34.7957 162.607 34.4471C162.243 34.0978 162.049 33.6574 162.027 33.1259C162.005 32.5944 162.162 32.1465 162.497 31.7823C162.846 31.4176 163.287 31.2242 163.818 31.2022C164.35 31.1802 164.798 31.3439 165.163 31.6931C165.541 32.0277 165.741 32.4538 165.762 32.9714C165.784 33.5029 165.621 33.9581 165.272 34.3368C164.937 34.715 164.504 34.915 163.973 34.937ZM178.43 28.8953C178.477 30.0284 178.343 31.0288 178.029 31.8965C177.714 32.7502 177.237 33.4285 176.6 33.9313C175.975 34.4195 175.23 34.6816 174.362 34.7174C173.215 34.7649 172.276 34.4114 171.544 33.657L171.76 38.8815L168.907 38.9996L168.272 23.6617L170.916 23.5523L171.067 24.6601C171.73 23.7499 172.663 23.2699 173.866 23.2201C175.209 23.1646 176.285 23.6245 177.096 24.5998C177.907 25.5611 178.349 26.93 178.422 28.7065L178.43 28.8953ZM175.588 28.7817C175.543 27.6906 175.313 26.8665 174.897 26.3091C174.495 25.7373 173.938 25.4661 173.224 25.4956C172.259 25.5355 171.603 25.941 171.257 26.712L171.453 31.4539C171.876 32.207 172.571 32.5636 173.536 32.5237C174.221 32.4954 174.741 32.1936 175.096 31.6185C175.464 31.0288 175.632 30.1811 175.6 29.0755L175.588 28.7817ZM183.424 31.9045L189.047 31.6719L189.139 33.896L179.97 34.2753L179.899 32.5548L185.017 25.1969L179.772 25.4139L179.68 23.1898L188.513 22.8244L188.582 24.482L183.424 31.9045Z" fill="black"/>
</svg>
