<svg width="173" height="63" viewBox="0 0 173 63" fill="none" xmlns="http://www.w3.org/2000/svg">
<rect x="0.718842" y="7.48242" width="170" height="55" rx="27.5" transform="rotate(-2.36874 0.718842 7.48242)" fill="#DBE74C"/>
<path d="M28.6996 45.4271C27.4407 45.4792 26.3048 45.288 25.292 44.8534C24.2792 44.4189 23.4669 43.7519 22.8552 42.8524C22.2435 41.953 21.9108 40.8528 21.857 39.5519C21.8217 38.6986 21.9303 37.7693 22.183 36.764C22.4491 35.7442 22.7548 34.8347 23.1 34.0358L25.1525 34.8757C24.8229 35.716 24.5733 36.455 24.4035 37.0925C24.2337 37.7301 24.1624 38.3776 24.1896 39.035C24.2376 40.196 24.6369 41.0413 25.3874 41.5707C26.1385 42.1141 27.1995 42.3575 28.5703 42.3008C29.3257 42.2695 30.0356 42.1561 30.7001 41.9605C31.3785 41.7642 31.9504 41.5304 32.4155 41.259C32.8947 40.9869 33.22 40.7212 33.3914 40.4619C33.1298 40.2346 32.5841 39.9138 31.7543 39.4998C30.925 39.0997 30.0701 38.7568 29.1895 38.4709L29.7185 35.5065C30.9453 35.694 32.0086 35.8251 32.9085 35.9C33.8077 35.9609 34.691 35.9734 35.5583 35.9375L35.873 35.9245L36.106 37.4912L36.0023 39.0508L35.6876 39.0638C34.8058 39.0863 33.9076 39.0534 32.9932 38.9651C32.0782 38.8628 30.9514 38.7203 29.6127 38.5375C29.5276 38.513 29.3865 38.4908 29.1895 38.4709L29.782 36.5338C29.8816 36.5717 30.4224 36.7735 31.4044 37.1392C32.3863 37.5049 33.3178 38.0059 34.1989 38.642C35.0933 39.2636 35.5536 39.8891 35.5796 40.5185C35.6225 41.2174 35.344 41.9365 34.7441 42.6759C34.1447 43.4293 33.309 44.0594 32.2371 44.5662C31.1797 45.0863 30.0005 45.3733 28.6996 45.4271ZM35.6219 35.9349L35.9576 35.921C38.1957 35.8284 39.8396 35.5993 40.8894 35.2336C41.9532 34.8673 42.5262 34.3251 42.6086 33.6071L42.6209 33.3964C42.603 32.9628 42.4326 32.5705 42.1099 32.2196C41.8011 31.868 41.4281 31.6593 40.991 31.5933C40.9485 31.581 40.8783 31.5769 40.7803 31.581C40.3327 31.5995 39.9206 31.7987 39.544 32.1786C39.1813 32.5579 39.0096 32.9783 39.0287 33.4399C39.0483 33.9155 39.3746 34.3504 40.0074 34.7446C40.6542 35.1382 41.4375 35.4421 42.3571 35.6563C43.2762 35.8565 44.1274 35.9403 44.9107 35.9079C45.5122 35.8831 45.9843 35.7795 46.3271 35.5971C46.6838 35.4142 46.8552 35.1549 46.8414 34.8192C46.7864 33.4904 43.5335 32.0836 37.0826 30.5989L38.1168 27.6557C40.9072 28.381 43.0946 29.0962 44.6791 29.8013C46.263 30.4924 47.3851 31.1957 48.0452 31.911C48.7053 32.6263 49.0533 33.4176 49.0892 34.2849C49.1112 34.8164 49.0195 35.4788 48.8141 36.2719C48.6204 37.0086 48.1533 37.5743 47.413 37.9693C46.6727 38.3642 45.778 38.5834 44.7289 38.6268C43.5539 38.6754 42.3563 38.5147 41.1359 38.1449C39.915 37.761 38.8903 37.2079 38.0617 36.4855C37.2466 35.7486 36.8193 34.9045 36.78 33.9533C36.7736 33.7995 36.792 33.5675 36.8353 33.2574C36.9806 32.3687 37.2557 31.5656 37.6604 30.8483C38.0791 30.1304 38.5816 29.5771 39.1681 29.1885C39.7685 28.7994 40.3989 28.6262 41.0592 28.6689C41.677 28.6994 42.2469 28.9281 42.769 29.3549C43.3051 29.7811 43.7342 30.3308 44.0563 31.0041C44.3784 31.6773 44.5545 32.3777 44.5846 33.105C44.595 33.3568 44.5844 33.6095 44.5529 33.863C44.4214 35.0875 44.0414 36.063 43.4129 36.7896C42.7844 37.5162 41.875 38.0583 40.6847 38.4158C39.5079 38.7587 37.9753 38.9692 36.0869 39.0473L35.7512 39.0612L35.6219 35.9349ZM55.8069 38.2316C54.2682 38.2952 53.138 37.9006 52.4161 37.0477C51.7082 36.1942 51.317 34.8653 51.2423 33.0608C51.1572 31.3409 51.0292 29.6017 50.8583 27.8432C50.7009 26.0702 50.5146 24.6137 50.2993 23.4736L52.8776 22.7995C53.0597 23.8148 53.2289 25.195 53.3852 26.94C53.5409 28.6711 53.6494 30.278 53.7107 31.7607L53.7437 32.558C53.7592 33.272 53.8164 33.8091 53.9154 34.1693C54.0144 34.5295 54.193 34.7813 54.4511 34.9248C54.7232 35.0677 55.1321 35.1278 55.6776 35.1053L55.7825 35.1009L56.0155 36.6676L55.9118 38.2272L55.8069 38.2316ZM66.1857 37.8023C65.5562 37.8283 64.9318 37.6369 64.3123 37.2282C63.6929 36.8194 63.0968 36.2976 62.5241 35.6628C61.9648 35.0133 61.2193 34.0984 60.2878 32.9178L59.7783 32.2874L61.3262 30.5839C62.3929 31.983 63.2977 33.0245 64.0406 33.7084C64.783 34.3783 65.4549 34.7008 66.0563 34.6759L66.413 34.6612L66.646 36.2279L66.5424 37.7875L66.1857 37.8023ZM55.2716 35.1221L55.985 35.0925C57.1739 35.0434 58.1493 34.9119 58.9112 34.6983C59.673 34.4846 60.1804 34.2184 60.4335 33.8997C60.1838 32.6069 58.6579 30.9465 55.8557 28.9186L56.0156 26.1797L63.6847 22.5626L64.6272 25.0247L58.6702 27.8564C59.5972 28.5887 60.4963 29.4903 61.3673 30.5612C62.2383 31.6321 62.6964 32.7131 62.7415 33.8042C62.7513 34.042 62.7271 34.3022 62.6687 34.5849C62.4358 35.7295 61.7364 36.6061 60.5706 37.2148C59.4042 37.8095 57.9187 38.1442 56.1143 38.2189L55.4009 38.2484L55.2716 35.1221ZM56.1414 23.6313L62.8451 20.5586L63.2435 21.551L56.0684 24.9164L56.1414 23.6313ZM77.8594 34.1877L77.9224 34.1851C78.328 34.1683 78.6448 34.0361 78.8728 33.7885C79.1007 33.5408 79.2069 33.2282 79.1913 32.8505C79.1757 32.4728 79.0039 31.8774 78.676 31.0643C78.3621 30.2505 78.0983 29.6309 77.8845 29.2054L79.9761 27.9419C80.2644 28.4764 80.5766 29.2482 80.9126 30.2571C81.248 31.2521 81.4313 32.1273 81.4626 32.8826C81.495 33.666 81.3709 34.3927 81.0903 35.0629C80.8092 35.7191 80.404 36.2543 79.8747 36.6685C79.3448 37.0688 78.7371 37.2831 78.0517 37.3114L77.9887 37.314L77.8594 34.1877ZM72.2362 34.4203L72.3411 34.416C73.0545 34.3864 73.5911 33.9789 73.951 33.1934C74.1948 32.6508 74.3987 31.8227 74.5628 30.709L76.7283 30.7245C76.6126 31.6541 76.5629 32.3147 76.5791 32.7063C76.6213 33.7275 77.0691 34.2204 77.9224 34.1851L77.9643 34.1833L78.1973 35.7501L78.0936 37.3097L78.0517 37.3114C77.2963 37.3427 76.6515 37.1662 76.1171 36.7819C75.5828 36.3977 75.1954 35.8392 74.9549 35.1065L75.4777 35.0429C74.6898 36.6588 73.6664 37.4928 72.4075 37.5449L72.3655 37.5466L72.2362 34.4203ZM66.3647 37.7949L66.1326 36.2491L66.2354 34.6685L66.3403 34.6642C66.7739 34.6462 67.1968 34.5377 67.6089 34.3385C68.0204 34.1253 68.3253 33.8745 68.5236 33.586C68.8034 33.2382 69.0116 32.8512 69.1481 32.4252C69.2846 31.9992 69.406 31.5458 69.5122 31.065L71.7039 31.2055C71.6928 31.2761 71.6274 31.559 71.5078 32.0544C71.3876 32.5358 71.3356 32.9723 71.3518 33.3639C71.3819 34.0913 71.6907 34.4429 72.2782 34.4186L72.3201 34.4168L72.5531 35.9835L72.4495 37.5431L72.3446 37.5475C71.7431 37.5724 71.2119 37.4332 70.7509 37.13C70.29 36.8268 69.9576 36.4132 69.7538 35.8891C69.3299 36.4812 68.8306 36.9432 68.2558 37.2752C67.6945 37.5927 67.0851 37.7651 66.4276 37.7922L66.3647 37.7949ZM73.3154 24.4342L75.0625 26.0223L73.4543 27.7913C73.322 27.6426 72.8847 27.2333 72.1424 26.5635C72.1424 26.5635 71.9967 26.4294 71.7054 26.1612L73.3154 24.4342ZM77.281 24.2701L79.0072 25.8591C79.0072 25.8591 78.7926 26.0922 78.3635 26.5583L77.4199 27.6272C77.4199 27.6272 77.0266 27.2652 76.24 26.5411L75.65 25.998L77.281 24.2701ZM75.1931 22.0655L76.7226 23.4735L75.3155 25.024C75.3155 25.024 74.9732 24.7089 74.2885 24.0786L73.7641 23.5959L75.1931 22.0655ZM83.2434 40.5226C85.614 39.9061 87.3228 39.2119 88.3697 38.4399C89.4167 37.668 89.9165 36.7085 89.8691 35.5615C89.8209 34.7368 89.6688 33.9374 89.4125 33.1633C89.1558 32.3753 88.8141 31.7378 88.3876 31.251C87.9751 30.7637 87.5241 30.5301 87.0345 30.5504C86.7548 30.5619 86.4933 30.6778 86.2502 30.8981C86.0211 31.1177 85.836 31.3846 85.6948 31.6987C85.5677 32.0122 85.5096 32.3019 85.5206 32.5677C85.5299 32.7915 85.5936 32.978 85.7119 33.1272C85.9333 33.3983 86.3269 33.5992 86.8928 33.7299C87.4721 33.8461 88.1185 33.8894 88.8318 33.8599C89.3634 33.8379 89.8862 33.7743 90.4003 33.6689L90.5209 36.5854C89.8425 36.7816 89.1395 36.8948 88.4122 36.9249C87.391 36.9671 86.4676 36.8302 85.6418 36.514C84.8155 36.1839 84.2197 35.6691 83.8545 34.9696C83.5801 34.4345 83.4293 33.8382 83.4021 33.1807C83.368 32.3554 83.509 31.5299 83.8251 30.7041C84.1407 29.8644 84.5955 29.173 85.1896 28.63C85.7831 28.073 86.4435 27.7794 87.1709 27.7493C88.0101 27.7146 88.7875 28.0468 89.503 28.7458C90.2185 29.4448 90.7964 30.3737 91.2367 31.5325C91.677 32.6913 91.9234 33.9072 91.9761 35.1801C92.0571 37.1384 91.419 38.8182 90.0617 40.2195C88.7045 41.6208 86.7908 42.6107 84.3206 43.1893L83.2434 40.5226ZM100.721 36.3737C99.77 36.413 98.9862 36.0951 98.3697 35.42C97.7533 34.7449 97.2232 33.786 96.7795 32.5433L98.6201 31.3112C98.8466 32.0444 99.1061 32.5592 99.3986 32.8553C99.6905 33.1375 100.088 33.2682 100.592 33.2473L100.781 33.2395L101.014 34.8062L100.91 36.3659L100.721 36.3737ZM92.4095 40.2065C93.317 39.7906 94.1451 39.315 94.8936 38.7796C95.6427 38.2582 96.2239 37.7437 96.6373 37.2362C97.0647 36.7281 97.2711 36.2992 97.2567 35.9495C97.2329 35.376 96.7977 33.8316 95.9511 31.3165L95.8288 30.9012L98.1406 29.8808C98.5162 30.8321 98.8248 31.8562 99.0664 32.9531C99.3073 34.0361 99.4455 35.0042 99.4808 35.8575C99.5375 37.2283 99.0513 38.5165 98.0222 39.7221C96.9938 40.9416 95.5859 41.9667 93.7987 42.7973L92.4095 40.2065ZM100.596 33.2472L100.911 33.2341C102.436 33.1711 103.664 33.0572 104.596 32.8925C105.541 32.7133 106.266 32.4451 106.769 32.088C107.287 31.7163 107.567 31.2143 107.611 30.582C107.58 29.8266 107.437 29.0829 107.182 28.3508C106.927 27.6047 106.594 27.0019 106.183 26.5425C105.785 26.0826 105.349 25.8624 104.873 25.8821C104.44 25.9 104.077 26.1112 103.786 26.5156C103.493 26.906 103.356 27.311 103.373 27.7307C103.383 27.9545 103.439 28.1343 103.543 28.2701C103.764 28.5272 104.157 28.7281 104.724 28.8728C105.29 29.0035 105.922 29.0544 106.622 29.0255C107.111 29.0053 107.592 28.9433 108.064 28.8397L108.18 31.6303C107.487 31.8131 106.811 31.9181 106.154 31.9453C105.161 31.9864 104.265 31.8483 103.468 31.531C102.684 31.2131 102.11 30.7254 101.747 30.0679C101.472 29.5328 101.322 28.9365 101.294 28.2791C101.261 27.4817 101.397 26.6985 101.702 25.9292C102.006 25.16 102.449 24.5251 103.031 24.0246C103.612 23.5102 104.267 23.2379 104.994 23.2078C105.819 23.1737 106.574 23.4717 107.259 24.102C107.943 24.7182 108.489 25.5504 108.896 26.5984C109.318 27.6459 109.553 28.7641 109.603 29.9531C109.682 31.8834 109.017 33.4033 107.605 34.5125C106.208 35.6212 104.006 36.2378 100.998 36.3622L100.725 36.3735L100.596 33.2472ZM104.381 18.0417C104.832 18.4434 105.276 18.8524 105.714 19.2687L106.391 19.8922L104.541 21.9024L102.509 20.0528L104.381 18.0417ZM128.103 29.377C128.062 29.743 128.045 30.0029 128.051 30.1568C128.078 30.8142 128.294 31.2957 128.699 31.6012C129.118 31.9062 129.747 32.0413 130.586 32.0066L130.943 31.9918L131.176 33.5585L131.073 35.1181L130.716 35.1329C129.793 35.1711 128.98 35.0015 128.278 34.6242C127.575 34.233 127.027 33.6811 126.633 32.9688C126.239 32.2425 126.022 31.4107 125.983 30.4735C125.965 30.0259 125.988 29.5626 126.052 29.0835L128.103 29.377ZM123.856 43.5716C122.513 43.6272 121.279 43.44 120.154 43.0101C119.03 42.5803 118.127 41.924 117.446 41.0414C116.765 40.1728 116.4 39.13 116.349 37.9131C116.338 37.6333 116.336 37.4232 116.344 37.2827C116.42 35.7243 116.98 34.356 118.024 33.1778C119.068 31.9856 120.52 31.0218 122.381 30.2862C124.256 29.5361 126.457 29.0527 128.984 28.8361L128.468 31.1063C127.601 30.8059 126.606 30.2866 125.483 29.5484C124.46 28.8901 123.629 28.4271 122.987 28.1594C122.359 27.8771 121.758 27.7478 121.184 27.7716C120.653 27.7935 120.183 27.9601 119.776 28.2712C119.382 28.5817 119.081 28.9235 118.872 29.2964L117.057 28.0894C118.047 25.9467 119.403 24.8397 121.123 24.7685C121.921 24.7355 122.705 24.8923 123.476 25.2387C124.26 25.5706 125.308 26.1718 126.619 27.0423C127.325 27.5035 127.871 27.8452 128.259 28.0674C128.646 28.2756 129.059 28.4477 129.499 28.5836L129.267 31.5988C127.154 31.6862 125.304 32.0149 123.717 32.585C122.143 33.1545 120.918 33.8708 120.043 34.7337C119.182 35.596 118.707 36.4844 118.619 37.3988C118.589 38.0166 118.814 38.5607 119.296 39.0312C119.793 39.5151 120.473 39.8793 121.338 40.1238C122.204 40.3822 123.168 40.4894 124.231 40.4455C125.21 40.405 126.129 40.2619 126.987 40.0162C127.846 39.7705 128.523 39.5393 129.019 39.3226L130.251 41.6677C128.393 42.8375 126.262 43.4721 123.856 43.5716ZM123.697 34.6456C124.148 35.0473 124.592 35.4563 125.03 35.8726L125.707 36.4961L123.856 38.5063L121.825 36.6567L123.697 34.6456ZM130.737 32.0003L130.884 31.9943C132.143 31.9422 133.078 31.8405 133.688 31.6891C134.298 31.5238 134.695 31.3042 134.88 31.0303C135.065 30.7564 135.147 30.3677 135.126 29.8641C135.109 29.4585 135.012 28.7969 134.833 27.8795L136.977 27.3705C137.215 28.3835 137.361 29.5335 137.414 30.8204C137.48 31.0559 137.643 31.2593 137.902 31.4307C138.161 31.6022 138.529 31.678 139.004 31.6584L139.13 31.6532L139.363 33.2199L139.259 34.7795L139.134 34.7847C138.49 34.8113 137.888 34.6611 137.328 34.3339C136.768 33.9928 136.322 33.5558 135.992 33.023L136.521 33.1062C136.17 33.7653 135.574 34.2524 134.732 34.5674C133.904 34.8679 132.664 35.0523 131.014 35.1206L130.867 35.1267L130.737 32.0003ZM136.606 40.2488L134.771 38.5592L136.46 36.7029C136.867 37.0783 137.071 37.266 137.071 37.266C137.902 38.0304 138.317 38.4126 138.317 38.4126L136.606 40.2488ZM132.913 40.4016L131.078 38.712L132.767 36.8556C133.175 37.2311 133.379 37.4188 133.379 37.4188C134.209 38.1831 134.624 38.5653 134.624 38.5653L132.913 40.4016ZM139.836 31.624L140.843 31.5823C142.228 31.525 143.202 31.3656 143.766 31.1041C144.33 30.8426 144.601 30.467 144.581 29.9774C144.554 29.6703 144.369 29.0894 144.026 28.2349C143.681 27.3664 143.433 26.7882 143.281 26.5002L145.455 25.1912C145.759 25.7672 146.071 26.5389 146.392 27.5065C146.711 28.4601 146.886 29.3006 146.916 30.028C146.961 31.4553 146.524 32.5734 145.605 33.382C144.685 34.1767 143.295 34.6126 141.434 34.6895L139.965 34.7503L139.836 31.624ZM145.095 39.3512L143.348 37.7631L144.956 35.9941C145.234 36.2768 145.664 36.6864 146.247 37.2228L146.705 37.6242L145.095 39.3512ZM141.129 39.5153L139.403 37.9262L140.026 37.2279L140.991 36.1581L142.17 37.2443L142.76 37.7874L141.129 39.5153ZM143.217 41.7198L141.688 40.3119L143.095 38.7614C143.095 38.7614 143.437 39.0765 144.122 39.7067L144.646 40.1895L143.217 41.7198ZM139.084 34.7867L138.852 33.241L138.955 31.6604L139.983 31.6179L140.112 34.7442L139.084 34.7867Z" fill="black"/>
</svg>
