<svg width="171" height="56" viewBox="0 0 171 56" fill="none" xmlns="http://www.w3.org/2000/svg">
<rect x="0.799164" y="0.0556641" width="170" height="55" rx="27.5" transform="rotate(0.120791 0.799164 0.0556641)" fill="#DBE74C"/>
<path d="M29.9089 31.3259C28.9569 31.3239 28.1594 31.0562 27.5166 30.5228C26.8877 29.9895 26.3295 29.1483 25.8419 27.9993L22.8534 21.105L25.0189 19.9335L27.8815 26.7436C28.1044 27.3041 28.3625 27.6896 28.6561 27.9002C28.9497 28.0968 29.3695 28.1957 29.9155 28.1969L30.1675 28.1974L30.3322 29.7728L30.1609 31.3264L29.9089 31.3259ZM23.1467 31.4166C21.4387 31.413 19.8369 30.8496 18.3412 29.7265L19.4799 27.5239C19.9274 27.7628 20.4169 27.9809 20.9485 28.178C21.4801 28.3611 22.1099 28.4534 22.8379 28.455C23.7479 28.4569 24.4832 28.3254 25.0438 28.0606C25.6043 27.7818 26.039 27.4887 26.3476 27.1814L27.7508 29.0113C27.4279 29.4166 27.1122 29.773 26.8035 30.0803C26.5089 30.3737 26.0463 30.6737 25.4156 30.9804C24.785 31.2731 24.0287 31.4185 23.1467 31.4166ZM29.9581 28.197L31.0711 28.1993C32.0791 28.2014 32.8004 28.091 33.2348 27.8679C33.6833 27.6448 33.908 27.3093 33.909 26.8613C33.9096 26.5673 33.7638 25.993 33.4716 25.1384C33.1794 24.2697 32.9498 23.6323 32.7826 23.2259L34.9902 22.0126C35.2549 22.6011 35.5263 23.3927 35.8042 24.3873C36.0961 25.3679 36.2413 26.2292 36.2397 26.9712C36.2367 28.3992 35.7864 29.4833 34.8889 30.2234C34.0053 30.9635 32.7305 31.3318 31.0645 31.3283L29.9515 31.326L29.9581 28.197ZM33.1941 17.3048C33.6272 17.7257 34.0533 18.1536 34.4724 18.5885L35.122 19.2408L33.186 21.1688L31.237 19.2326L33.1941 17.3048ZM43.7285 31.355C42.7765 31.353 42.0072 31.0014 41.4207 30.3001C40.8342 29.5989 40.3463 28.6179 39.9569 27.357L41.8493 26.206C42.0438 26.9484 42.2807 27.4739 42.56 27.7825C42.8394 28.0771 43.2311 28.2249 43.7351 28.226L43.9241 28.2264L44.0888 29.8018L43.9175 31.3554L43.7285 31.355ZM35.2582 34.8232C36.183 34.4471 37.0309 34.0079 37.8019 33.5055C38.573 33.0171 39.176 32.5284 39.611 32.0393C40.0601 31.5503 40.285 31.1307 40.2857 30.7807C40.2869 30.2067 39.9192 28.645 39.1826 26.0954L39.0785 25.6752L41.4324 24.7561C41.7664 25.7229 42.0302 26.7594 42.2238 27.8658C42.4175 28.9582 42.5135 29.9314 42.5117 30.7854C42.5088 32.1574 41.9671 33.4233 40.8867 34.583C39.8062 35.7567 38.3552 36.7197 36.5336 37.4718L35.2582 34.8232ZM43.7394 28.226L44.8524 28.2284C45.8604 28.2305 46.5816 28.12 47.0161 27.8969C47.4645 27.6739 47.6892 27.3383 47.6902 26.8903C47.6908 26.5963 47.545 26.022 47.2528 25.1674C46.9606 24.2988 46.731 23.6613 46.5638 23.255L48.7714 22.0416C49.0362 22.6302 49.3075 23.4217 49.5854 24.4163C49.8773 25.397 50.0225 26.2583 50.021 27.0003C50.0179 28.4283 49.5677 29.5123 48.6701 30.2524C47.7865 30.9926 46.5118 31.3609 44.8458 31.3574L43.7328 31.355L43.7394 28.226ZM46.4173 32.9987C46.8504 33.4196 47.2765 33.8475 47.6956 34.2824L48.3452 34.9347L46.4092 36.8627L44.4602 34.9266L46.4173 32.9987ZM62.6121 36.8758C61.4921 36.8735 60.4636 36.6473 59.5266 36.1973C58.5895 35.7473 57.8419 35.0948 57.2837 34.2396C56.7395 33.3984 56.4685 32.4179 56.4709 31.2979C56.4726 30.4859 56.6215 29.5832 56.9176 28.5898C57.2137 27.5824 57.5516 26.6731 57.9313 25.8619L59.9664 26.7902C59.5867 27.6154 59.2981 28.3358 59.1008 28.9514C58.9176 29.553 58.8253 30.1688 58.8239 30.7988C58.8221 31.6668 59.1706 32.3746 59.8695 32.922C60.5683 33.4695 61.4847 33.7444 62.6187 33.7468C64.0467 33.7498 65.1255 33.3881 65.855 32.6617C66.5846 31.9352 66.9299 30.8369 66.891 29.3668C66.8261 26.9447 66.7052 24.5224 66.5283 22.1001C66.3514 19.6637 66.1734 17.7733 65.9943 16.4289L68.6204 15.8674C68.8547 17.6599 69.0483 22.1124 69.2013 29.2247C69.2259 30.8068 68.9781 32.1712 68.4577 33.3181C67.9512 34.4651 67.2004 35.3455 66.2051 35.9594C65.2098 36.5733 64.0121 36.8788 62.6121 36.8758ZM75.9262 31.4229C74.3862 31.4196 73.2741 30.9763 72.59 30.0928C71.9198 29.2094 71.5867 27.8647 71.5905 26.0587C71.5801 24.3367 71.5278 22.5936 71.4335 20.8294C71.3532 19.0512 71.2303 17.588 71.0648 16.4396L73.6699 15.8781C73.8078 16.9004 73.9169 18.2866 73.9972 20.0368C74.0775 21.773 74.1161 23.383 74.113 24.867L74.1113 25.665C74.0958 26.379 74.1297 26.9181 74.2129 27.2823C74.2961 27.6464 74.4636 27.9058 74.7153 28.0603C74.9809 28.2149 75.3868 28.2927 75.9328 28.2939L76.0378 28.2941L76.2025 29.8695L76.0312 31.4231L75.9262 31.4229ZM75.834 28.2937L75.96 28.2939C77.024 28.2962 77.7942 28.1858 78.2707 27.9628C78.7612 27.7399 79.0419 27.3764 79.113 26.8726C79.1415 26.6487 79.1559 26.4737 79.1561 26.3477C79.1568 26.0117 79.1226 25.6266 79.0536 25.1925C78.9845 24.7443 78.9431 24.4642 78.9293 24.3522L81.1142 23.9368C81.294 24.9732 81.3826 26.1284 81.3799 27.4024C81.4354 27.6405 81.589 27.8508 81.8406 28.0333C82.1062 28.2159 82.477 28.3077 82.953 28.3087L83.079 28.309L83.2437 29.8843L83.0724 31.4379L82.9464 31.4377C82.2884 31.4363 81.6868 31.26 81.1415 30.9089C80.6102 30.5578 80.1842 30.1019 79.8634 29.5412L80.4303 29.6054C80.0509 30.2346 79.49 30.6954 78.7473 30.9878C78.0187 31.2803 77.0874 31.4253 75.9534 31.4229L75.8274 31.4227L75.834 28.2937ZM78.6265 18.5765C79.0596 18.9975 79.4857 19.4254 79.9048 19.8602L80.5544 20.5126L78.6184 22.4405L76.6694 20.5044L78.6265 18.5765ZM94.5651 28.3332L94.6281 28.3333C95.0341 28.3342 95.3564 28.2158 95.5949 27.9783C95.8334 27.7408 95.953 27.4331 95.9538 27.0551C95.9546 26.6771 95.8089 26.0748 95.5167 25.2482C95.2384 24.4216 95.0017 23.7911 94.8066 23.3567L96.9511 22.1852C97.216 22.7317 97.4943 23.5163 97.7862 24.539C98.078 25.5476 98.2232 26.4299 98.2216 27.1859C98.2199 27.9699 98.0644 28.6905 97.755 29.3479C97.4457 29.9912 97.0176 30.5083 96.4707 30.8992C95.9239 31.276 95.3075 31.4637 94.6215 31.4623L94.5586 31.4622L94.5651 28.3332ZM88.9372 28.3213L89.0422 28.3215C89.7562 28.323 90.31 27.9392 90.7036 27.17C90.9707 26.6386 91.2104 25.8201 91.4228 24.7145L93.5855 24.8241C93.4296 25.7478 93.3512 26.4056 93.3504 26.7976C93.3482 27.8196 93.7741 28.3315 94.6281 28.3333L94.6701 28.3334L94.8348 29.9087L94.6636 31.4624L94.6215 31.4623C93.8656 31.4607 93.229 31.2564 92.7118 30.8493C92.1947 30.4422 91.8319 29.8674 91.6235 29.125L92.1486 29.0841C91.2912 30.6643 90.2326 31.453 88.9726 31.4504L88.9306 31.4503L88.9372 28.3213ZM82.9246 31.4376L82.7599 29.8833L82.9312 28.3086L83.0362 28.3089C83.4702 28.3098 83.8974 28.2197 84.3177 28.0386C84.7382 27.8435 85.0537 27.6061 85.2642 27.3266C85.559 26.9912 85.7838 26.6137 85.9386 26.194C86.0935 25.7743 86.2345 25.3266 86.3615 24.8509L88.545 25.0865C88.5308 25.1564 88.4532 25.4363 88.3122 25.926C88.1712 26.4017 88.1003 26.8355 88.0995 27.2275C88.0979 27.9555 88.3912 28.3202 88.9792 28.3214L89.0212 28.3215L89.1858 29.8968L89.0146 31.4505L88.9096 31.4503C88.3076 31.449 87.7829 31.2869 87.3356 30.9639C86.8883 30.641 86.5742 30.2133 86.3933 29.6809C85.9441 30.254 85.4251 30.6939 84.8365 31.0007C84.2619 31.2935 83.6456 31.4392 82.9876 31.4378L82.9246 31.4376ZM105.6 31.4854C104.648 31.4834 103.879 31.1318 103.293 30.4306C102.706 29.7293 102.218 28.7483 101.829 27.4875L103.721 26.3365C103.916 27.0789 104.153 27.6044 104.432 27.913C104.711 28.2076 105.103 28.3554 105.607 28.3564L105.796 28.3568L105.961 29.9322L105.789 31.4858L105.6 31.4854ZM97.1301 34.9536C98.0549 34.5775 98.9028 34.1383 99.6739 33.636C100.445 33.1476 101.048 32.6588 101.483 32.1698C101.932 31.6807 102.157 31.2612 102.158 30.9112C102.159 30.3372 101.791 28.7754 101.055 26.2258L100.95 25.8056L103.304 24.8866C103.638 25.8533 103.902 26.8899 104.096 27.9963C104.289 29.0887 104.385 30.0619 104.384 30.9159C104.381 32.2879 103.839 33.5537 102.759 34.7135C101.678 35.8872 100.227 36.8501 98.4055 37.6023L97.1301 34.9536ZM106.535 28.3584L107.543 28.3605C108.929 28.3635 109.91 28.2465 110.484 28.0097C111.059 27.7729 111.346 27.4095 111.347 26.9195C111.334 26.6115 111.174 26.0232 110.868 25.1545C110.562 24.2719 110.339 23.6834 110.2 23.3891L112.428 22.1758C112.707 22.7644 112.985 23.549 113.263 24.5296C113.541 25.4962 113.68 26.3435 113.678 27.0715C113.661 28.4994 113.176 29.5974 112.222 30.3654C111.268 31.1194 109.861 31.4944 107.999 31.4905L106.529 31.4874L106.535 28.3584ZM111.454 36.3068L109.777 34.6443L111.461 32.9468C111.726 33.2414 112.138 33.6692 112.697 34.2304L113.137 34.6513L111.454 36.3068ZM107.485 36.2984L105.829 34.6359L106.481 33.9653L107.492 32.9384L108.623 34.0748L109.189 34.643L107.485 36.2984ZM109.475 38.5916L108.008 37.1185L109.481 35.6306C109.481 35.6306 109.809 35.9603 110.466 36.6197L110.969 37.1248L109.475 38.5916ZM105.647 31.4855L105.482 29.9312L105.653 28.3565L106.682 28.3587L106.676 31.4877L105.647 31.4855ZM132.194 25.6825C132.137 26.0464 132.108 26.3053 132.108 26.4593C132.107 27.1173 132.302 27.6077 132.693 27.9306C133.098 28.2534 133.721 28.4157 134.561 28.4175L134.918 28.4182L135.083 29.9936L134.911 31.5472L134.554 31.5465C133.63 31.5445 132.826 31.3398 132.141 30.9324C131.455 30.5109 130.932 29.9358 130.569 29.2071C130.207 28.4643 130.027 27.6239 130.029 26.6859C130.029 26.2379 130.072 25.776 130.157 25.3002L132.194 25.6825ZM127.334 39.6793C125.99 39.6764 124.766 39.4359 123.661 38.9575C122.556 38.4792 121.682 37.7844 121.04 36.873C120.398 35.9756 120.078 34.918 120.081 33.7C120.081 33.42 120.089 33.21 120.103 33.07C120.246 31.5163 120.865 30.1736 121.96 29.0419C123.054 27.8962 124.547 26.9964 126.438 26.3424C128.344 25.6744 130.563 25.2871 133.098 25.1804L132.484 27.4261C131.631 27.0883 130.659 26.5263 129.569 25.74C128.576 25.0379 127.765 24.5392 127.136 24.2438C126.52 23.9345 125.926 23.7793 125.352 23.7781C124.82 23.7769 124.343 23.9229 123.923 24.2161C123.516 24.5092 123.2 24.8375 122.976 25.2011L121.214 23.9163C122.297 21.8186 123.699 20.7716 125.421 20.7752C126.219 20.7769 126.996 20.9675 127.751 21.3471C128.52 21.7127 129.541 22.3589 130.813 23.2856C131.498 23.777 132.029 24.1421 132.406 24.3809C132.784 24.6057 133.19 24.7956 133.623 24.9505L133.26 27.9527C131.146 27.9483 129.283 28.1964 127.672 28.697C126.075 29.1976 124.821 29.86 123.909 30.684C123.011 31.5081 122.498 32.3751 122.371 33.2848C122.313 33.9007 122.515 34.4541 122.976 34.9451C123.451 35.4501 124.115 35.8435 124.969 36.1253C125.822 36.4211 126.781 36.5701 127.845 36.5723C128.825 36.5744 129.749 36.4714 130.617 36.2632C131.486 36.055 132.172 35.8535 132.677 35.6585L133.806 38.0549C131.899 39.1429 129.742 39.6844 127.334 39.6793ZM127.563 30.7547C127.996 31.1757 128.422 31.6036 128.841 32.0384L129.491 32.6908L127.555 34.6187L125.606 32.6826L127.563 30.7547ZM134.712 28.4178L134.859 28.4181C136.119 28.4208 137.057 28.3598 137.673 28.2351C138.289 28.0963 138.696 27.8942 138.892 27.6286C139.089 27.363 139.188 26.9782 139.189 26.4742C139.19 26.0682 139.121 25.4031 138.983 24.4788L141.147 24.0634C141.341 25.0858 141.436 26.241 141.434 27.529C141.489 27.7671 141.643 27.9774 141.894 28.1599C142.146 28.3425 142.51 28.4342 142.986 28.4353L143.112 28.4355L143.276 30.0109L143.105 31.5645L142.979 31.5642C142.335 31.5629 141.741 31.3866 141.195 31.0355C140.65 30.6703 140.224 30.2144 139.917 29.6678L140.442 29.7739C140.063 30.4171 139.446 30.8778 138.591 31.156C137.75 31.4202 136.504 31.5506 134.852 31.5471L134.705 31.5468L134.712 28.4178ZM140.217 36.9134L138.457 35.1457L140.224 33.3644C140.616 33.7573 140.811 33.9537 140.811 33.9537C141.607 34.7534 142.006 35.1532 142.006 35.1532L140.217 36.9134ZM136.521 36.9056L134.761 35.1379L136.528 33.3566C136.92 33.7495 137.115 33.9459 137.115 33.9459C137.911 34.7456 138.31 35.1454 138.31 35.1454L136.521 36.9056ZM143.818 28.437L144.826 28.4391C146.212 28.4421 147.193 28.3251 147.767 28.0883C148.342 27.8515 148.629 27.4881 148.63 26.9981C148.617 26.6901 148.457 26.1018 148.151 25.2331C147.845 24.3505 147.622 23.762 147.483 23.4677L149.711 22.2544C149.99 22.843 150.269 23.6276 150.546 24.6082C150.824 25.5748 150.963 26.4221 150.961 27.1501C150.944 28.578 150.459 29.676 149.505 30.444C148.552 31.198 147.144 31.573 145.282 31.5691L143.812 31.566L143.818 28.437ZM148.737 36.3854L147.06 34.7229L148.744 33.0254C149.009 33.32 149.421 33.7478 149.98 34.309L150.42 34.7299L148.737 36.3854ZM144.768 36.377L143.112 34.7145L143.765 34.0439L144.775 33.017L145.906 34.1534L146.472 34.7216L144.768 36.377ZM146.758 38.6702L145.291 37.1971L146.764 35.7092C146.764 35.7092 147.092 36.0389 147.749 36.6983L148.252 37.2034L146.758 38.6702ZM142.93 31.5641L142.765 30.0098L142.936 28.4351L143.965 28.4373L143.959 31.5663L142.93 31.5641Z" fill="black"/>
</svg>
