<svg width="155" height="60" viewBox="0 0 155 60" fill="none" xmlns="http://www.w3.org/2000/svg">
<rect x="1.83249" y="0.567383" width="153.035" height="54.9504" rx="27.4752" transform="rotate(1.31966 1.83249 0.567383)" fill="#D4E32D"/>
<path d="M43.5012 40.01C42.1716 39.9794 41.0019 39.6934 39.9921 39.152C38.9823 38.6106 38.2092 37.8225 37.6729 36.7879C37.1503 35.7676 36.9542 34.5518 37.0847 33.1404C37.1997 31.7987 37.7131 30.1791 38.6251 28.2816L40.6402 29.2523C40.2427 30.0973 39.9387 30.8325 39.7282 31.4578C39.5321 32.0695 39.4266 32.6972 39.4117 33.3411C39.385 34.5027 39.7219 35.3787 40.4225 35.969C41.1371 36.5596 42.1872 36.8709 43.5728 36.9028C44.7065 36.9289 45.7259 36.7494 46.631 36.3641C47.5358 35.9929 48.1911 35.5108 48.5969 34.918C48.6118 34.8763 48.174 34.7332 47.2834 34.4886L46.178 34.1481C45.0797 33.8007 44.3047 33.3978 43.8532 32.9392C43.4016 32.4807 43.1852 31.8456 43.2039 31.0338C43.23 29.9001 43.5419 28.822 44.1396 27.7995C44.7373 26.777 45.5125 25.9546 46.4651 25.3324C47.4176 24.7101 48.4188 24.4111 49.4685 24.4353C49.8884 24.445 50.3138 24.5178 50.7448 24.6538C51.1761 24.7757 51.4738 24.9226 51.6379 25.0944L50.6938 27.7824C50.5551 27.7232 50.3533 27.6695 50.0883 27.6214C49.8233 27.5733 49.5859 27.5468 49.3759 27.542C48.8021 27.5288 48.2463 27.642 47.7087 27.8817C47.1853 28.1077 46.737 28.4195 46.3638 28.817C45.9908 29.2005 45.7361 29.6217 45.5995 30.0807C45.5842 30.1364 45.5756 30.2062 45.5736 30.2902C45.5682 30.5281 45.7243 30.7417 46.042 30.9311C46.374 31.1068 46.9925 31.3101 47.8975 31.541C49.1643 31.8643 50.0166 32.255 50.4541 32.7132C50.906 33.1577 51.1252 33.6739 51.1116 34.2618C51.0881 35.2835 50.7369 36.2416 50.0582 37.1363C49.3794 38.0309 48.4599 38.7379 47.2996 39.2573C46.153 39.791 44.8869 40.0419 43.5012 40.01ZM60.0834 35.3717C59.1316 35.3497 58.3699 34.9821 57.7981 34.2687C57.2264 33.5554 56.7591 32.5644 56.3962 31.2957L58.3123 30.1845C58.4912 30.9308 58.7171 31.4612 58.9899 31.7755C59.263 32.0759 59.6515 32.2319 60.1554 32.2435L60.3444 32.2478L60.476 33.8263L60.2723 35.376L60.0834 35.3717ZM51.5423 38.6618C52.4748 38.3052 53.3317 37.8838 54.1131 37.3977C54.8942 36.9256 55.5073 36.4496 55.9525 35.9697C56.4117 35.4901 56.6453 35.0754 56.6533 34.7255C56.6665 34.1517 56.3316 32.5825 55.6485 30.0181L55.5532 29.5958L57.9258 28.7262C58.2395 29.6997 58.4816 30.7415 58.652 31.8518C58.8228 32.948 58.8984 33.923 58.8787 34.7768C58.8471 36.1484 58.2791 37.4027 57.1746 38.5395C56.0698 39.6904 54.599 40.6228 52.762 41.3366L51.5423 38.6618ZM60.1597 32.2436L60.8735 32.26C62.0632 32.2874 63.045 32.219 63.819 32.0548C64.593 31.8906 65.1165 31.6576 65.3895 31.3558C65.2236 30.0496 63.8076 28.2946 61.1416 26.0906L61.4774 23.3676L69.3633 20.2514L70.1455 22.7691L64.0187 25.2116C64.8967 26.002 65.7359 26.9596 66.5362 28.0843C67.3365 29.2091 67.724 30.3173 67.6989 31.409C67.6934 31.6469 67.6525 31.9051 67.576 32.1834C67.27 33.3106 66.5157 34.1405 65.3131 34.6729C64.1108 35.1914 62.6069 35.4298 60.8014 35.3882L60.0876 35.3718L60.1597 32.2436ZM61.7669 20.8326L68.6544 18.1975L68.9881 19.2135L61.6114 22.1103L61.7669 20.8326ZM83.5166 35.9115C82.1309 35.8796 81.1339 35.3945 80.5253 34.4562C79.9171 33.5039 79.604 32.2014 79.586 30.5485C79.5817 30.1283 79.6464 29.7517 79.7801 29.4187C79.9278 29.086 80.1087 28.8311 80.3229 28.654C80.5373 28.4629 80.7425 28.3696 80.9385 28.3741C81.0924 28.3777 81.217 28.4435 81.312 28.5718C81.4071 28.7 81.4517 28.8901 81.4459 29.142C81.438 30.0941 81.4912 30.8235 81.6056 31.3303C81.7339 31.8374 81.9495 32.2064 82.2523 32.4374C82.5693 32.6548 83.0288 32.7704 83.6306 32.7843L83.8616 32.7896L83.7895 35.9178L83.5166 35.9115ZM81.0612 20.3108C81.4308 23.7222 81.5628 26.8061 81.4573 29.5624C81.4101 31.0037 80.9408 32.2252 80.0495 33.2269C79.1582 34.2287 77.9926 34.979 76.5527 35.478C75.1268 35.9773 73.5735 36.2356 71.8926 36.2529L71.2241 33.3597C72.7246 33.2682 74.0166 33.109 75.1001 32.8818C76.1976 32.6551 77.1026 32.2768 77.815 31.7471C78.5274 31.2173 78.8944 30.4836 78.916 29.5458C78.9342 28.1459 78.9015 26.8288 78.8179 25.5945C78.7343 24.3603 78.603 22.7678 78.4239 20.8172L81.0612 20.3108ZM73.2932 21.9593C74.08 23.6719 74.666 25.2818 75.0514 26.7891C75.4511 28.2827 75.6374 29.6174 75.6104 30.793C75.5884 31.7448 75.4373 32.5325 75.1568 33.1562L72.9871 33.4213C73.2074 32.9783 73.3249 32.4348 73.3398 31.791C73.3814 29.9855 72.6193 27.2022 71.0535 23.4411L73.2932 21.9593ZM83.6554 32.7849L84.7681 32.8105C85.7758 32.8337 86.4992 32.7383 86.9383 32.5244C87.3913 32.3108 87.623 31.98 87.6333 31.5321C87.6401 31.2382 87.5063 30.661 87.2321 29.8004C86.9581 28.9259 86.7419 28.2837 86.5833 27.874L88.8157 26.7071C89.0681 27.3011 89.3228 28.0981 89.5799 29.0983C89.8512 30.0848 89.9784 30.949 89.9613 31.6908C89.9284 33.1184 89.4555 34.1928 88.5427 34.914C87.6438 35.6355 86.3616 35.977 84.696 35.9387L83.5833 35.913L83.6554 32.7849ZM85.1827 37.6093C85.6069 38.0392 86.024 38.4759 86.4339 38.9195L87.0697 39.5853L85.0937 41.4723L83.1857 39.4958L85.1827 37.6093ZM108.525 30.627C108.46 30.9896 108.426 31.2479 108.423 31.4019C108.408 32.0597 108.592 32.5541 108.977 32.885C109.375 33.2163 109.994 33.3916 110.834 33.411L111.191 33.4192L111.323 34.9976L111.119 36.5473L110.762 36.5391C109.838 36.5178 109.038 36.2964 108.362 35.8747C107.686 35.439 107.174 34.853 106.827 34.1169C106.48 33.3667 106.317 32.5227 106.339 31.5849C106.349 31.1371 106.402 30.6762 106.497 30.2022L108.525 30.627ZM103.373 44.5191C102.03 44.4881 100.811 44.222 99.7158 43.7206C98.621 43.2193 97.7622 42.5063 97.1394 41.5817C96.5162 40.6711 96.2186 39.607 96.2466 38.3893C96.2531 38.1094 96.2649 37.8996 96.2821 37.76C96.4579 36.2096 97.1047 34.8802 98.2225 33.7716C99.3407 32.6491 100.852 31.7806 102.757 31.1663C104.676 30.5384 106.903 30.1976 109.439 30.144L108.778 32.3763C107.932 32.0208 106.973 31.4385 105.899 30.6296C104.921 29.9069 104.121 29.3913 103.498 29.0829C102.889 28.7607 102.298 28.5931 101.724 28.5799C101.192 28.5676 100.713 28.7036 100.286 28.9879C99.8736 29.2724 99.5511 29.5941 99.3188 29.9528L97.5847 28.6316C98.7108 26.5569 100.135 25.5395 101.856 25.5791C102.654 25.5975 103.426 25.8043 104.173 26.1996C104.935 26.5813 105.942 27.2486 107.194 28.2017C107.869 28.7074 108.392 29.0836 108.765 29.3302C109.137 29.5629 109.539 29.7612 109.969 29.9251L109.543 32.9191C107.43 32.8704 105.562 33.0795 103.941 33.5462C102.334 34.0134 101.066 34.6493 100.137 35.4541C99.2225 36.2593 98.6916 37.1153 98.5447 38.0222C98.4745 38.6367 98.6647 39.1942 99.1153 39.6947C99.5796 40.2096 100.235 40.6168 101.083 40.9164C101.93 41.23 102.885 41.399 103.949 41.4235C104.929 41.4461 105.855 41.3624 106.727 41.1724C107.6 40.9825 108.29 40.7953 108.799 40.611L109.877 43.0305C107.949 44.0783 105.781 44.5745 103.373 44.5191ZM103.789 35.6013C104.213 36.0312 104.63 36.4679 105.04 36.9114L105.676 37.5773L103.7 39.4643L101.792 37.4878L103.789 35.6013ZM110.985 33.4144L111.132 33.4178C112.392 33.4468 113.331 33.4055 113.95 33.2937C114.569 33.1679 114.979 32.9743 115.181 32.7129C115.383 32.4515 115.49 32.0688 115.502 31.565C115.511 31.1591 115.457 30.4926 115.338 29.5657L117.51 29.1956C117.682 30.2218 117.754 31.3788 117.724 32.6664C117.775 32.9057 117.924 33.1192 118.171 33.3069C118.419 33.4947 118.781 33.594 119.257 33.605L119.383 33.6079L119.515 35.1863L119.311 36.7361L119.185 36.7332C118.541 36.7183 117.95 36.5297 117.412 36.1672C116.875 35.7907 116.458 35.326 116.163 34.773L116.686 34.8901C116.293 35.5252 115.666 35.9729 114.806 36.2332C113.96 36.4798 112.712 36.584 111.06 36.546L110.913 36.5426L110.985 33.4144ZM116.311 42.0234L114.588 40.2192L116.393 38.4753C116.776 38.8762 116.967 39.0767 116.967 39.0767C117.747 39.8929 118.136 40.301 118.136 40.301L116.311 42.0234ZM112.616 41.9383L110.893 40.1341L112.698 38.3902C113.081 38.7911 113.272 38.9916 113.272 38.9916C114.052 39.8078 114.441 40.2158 114.441 40.2158L112.616 41.9383ZM120.089 33.6242L121.097 33.6474C122.483 33.6793 123.465 33.5829 124.044 33.3582C124.624 33.1335 124.919 32.7762 124.93 32.2863C124.923 31.9781 124.776 31.3865 124.488 30.5116C124.201 29.6228 123.99 29.0298 123.857 28.7326L126.11 27.5662C126.377 28.1605 126.639 28.9508 126.896 29.9369C127.154 30.9091 127.274 31.7591 127.257 32.4869C127.21 33.9142 126.702 35.0018 125.733 35.7497C124.764 36.4836 123.348 36.8291 121.487 36.7862L120.017 36.7523L120.089 33.6242ZM124.84 41.6737L123.199 39.9765L124.918 38.3146C125.177 38.6147 125.58 39.0511 126.127 39.6238L126.558 40.0538L124.84 41.6737ZM120.872 41.5823L119.252 39.8855L119.918 39.2287L120.95 38.2232L122.057 39.383L122.611 39.9629L120.872 41.5823ZM122.814 43.9166L121.378 42.4132L122.882 40.9564C122.882 40.9564 123.203 41.2929 123.846 41.9659L124.338 42.4814L122.814 43.9166ZM119.135 36.732L119.003 35.1746L119.207 33.6039L120.236 33.6275L120.164 36.7557L119.135 36.732Z" fill="#3E3158"/>
</svg>
