<svg width="171" height="57" viewBox="0 0 171 57" fill="none" xmlns="http://www.w3.org/2000/svg">
<rect x="0.739258" y="0.740234" width="170" height="55" rx="27.5" transform="rotate(0.120791 0.739258 0.740234)" fill="#DBE74C"/>
<path d="M39.496 37.0603C38.166 37.0575 36.9905 36.796 35.9696 36.2759C34.9487 35.7557 34.1593 34.9841 33.6015 33.9609C33.0576 32.9517 32.8362 31.7403 32.9372 30.3265C33.024 28.9827 33.5034 27.3527 34.3755 25.4365L36.4105 26.3648C36.0307 27.218 35.7422 27.9594 35.5448 28.589C35.3615 29.2046 35.2692 29.8344 35.2678 30.4784C35.2654 31.6404 35.6206 32.5091 36.3334 33.0847C37.0601 33.6602 38.1165 33.9494 39.5025 33.9523C40.6365 33.9547 41.652 33.7539 42.5488 33.3498C43.4456 32.9596 44.0907 32.464 44.484 31.8628C44.498 31.8209 44.0573 31.6869 43.1618 31.461L42.0495 31.1437C40.9441 30.8194 40.161 30.4327 39.6999 29.9837C39.2388 29.5348 39.0092 28.9043 39.0109 28.0923C39.0133 26.9583 39.3026 25.8739 39.8787 24.8391C40.4549 23.8043 41.2127 22.9659 42.1521 22.3239C43.0914 21.6819 44.0861 21.362 45.1361 21.3642C45.5561 21.3651 45.983 21.429 46.4167 21.5559C46.8504 21.6688 47.1512 21.8094 47.3188 21.9778L46.4311 24.6849C46.2912 24.6286 46.0883 24.5792 45.8224 24.5366C45.5565 24.4941 45.3185 24.4726 45.1085 24.4721C44.5345 24.4709 43.9813 24.5958 43.4487 24.8466C42.9302 25.0835 42.4886 25.4046 42.1237 25.8098C41.7589 26.2011 41.513 26.6276 41.386 27.0893C41.3719 27.1453 41.3647 27.2152 41.3646 27.2992C41.3641 27.5372 41.5246 27.7476 41.8462 27.9303C42.1819 28.099 42.8045 28.2893 43.714 28.5012C44.9874 28.7979 45.8476 29.1707 46.2947 29.6196C46.7558 30.0546 46.9857 30.5661 46.9844 31.1541C46.9823 32.1761 46.6513 33.1414 45.9913 34.05C45.3314 34.9586 44.4269 35.6847 43.2777 36.2283C42.1426 36.7859 40.882 37.0633 39.496 37.0603ZM55.9774 32.0761C55.0254 32.0741 54.2562 31.7224 53.6696 31.0212C53.0831 30.32 52.5952 29.3389 52.2058 28.0781L54.0983 26.9271C54.2927 27.6695 54.5296 28.195 54.8089 28.5036C55.0883 28.7982 55.48 28.946 55.984 28.9471L56.173 28.9475L56.3377 30.5228L56.1664 32.0765L55.9774 32.0761ZM47.5071 35.5442C48.4319 35.1682 49.2798 34.729 50.0509 34.2266C50.8219 33.7382 51.4249 33.2495 51.86 32.7604C52.309 32.2713 52.5339 31.8518 52.5346 31.5018C52.5358 30.9278 52.1681 29.366 51.4315 26.8165L51.3274 26.3962L53.6813 25.4772C54.0153 26.4439 54.2791 27.4805 54.4728 28.5869C54.6665 29.6793 54.7624 30.6525 54.7606 31.5065C54.7577 32.8785 54.2161 34.1444 53.1356 35.3041C52.0551 36.4778 50.6041 37.4407 48.7825 38.1929L47.5071 35.5442ZM66.7757 32.0988C66.1457 32.0975 65.5301 31.8792 64.929 31.4439C64.328 31.0087 63.7551 30.4615 63.2105 29.8023C62.6799 29.1292 61.9749 28.1827 61.0955 26.9628L60.6138 26.3108L62.2343 24.6762C63.2393 26.1204 64.098 27.2002 64.8105 27.9157C65.523 28.6172 66.1803 28.9686 66.7823 28.9698L67.1393 28.9706L67.3039 30.5459L67.1327 32.0996L66.7757 32.0988ZM55.9883 28.9471L56.7023 28.9486C57.8923 28.9511 58.8725 28.8622 59.6428 28.6818C60.4132 28.5014 60.9317 28.2575 61.1984 27.9501C61.0051 26.6477 59.5528 24.9226 56.8413 22.7749L57.12 20.0454L64.939 16.7649L65.7737 19.2657L59.6993 21.8359C60.5937 22.6078 61.4527 23.5476 62.2763 24.6553C63.1 25.7631 63.5107 26.8629 63.5084 27.9549C63.5079 28.1929 63.4723 28.4519 63.4017 28.7317C63.1194 29.8651 62.3826 30.7106 61.1914 31.2681C60.0002 31.8115 58.5017 32.0814 56.6957 32.0776L55.9817 32.0761L55.9883 28.9471ZM57.3564 17.5049L64.1873 14.7263L64.5422 15.7351L57.2277 18.7857L57.3564 17.5049ZM78.5954 28.9947L78.6584 28.9949C79.0644 28.9957 79.3866 28.8774 79.6251 28.6399C79.8636 28.4024 79.9833 28.0947 79.9841 27.7167C79.9849 27.3387 79.8391 26.7364 79.5469 25.9097C79.2686 25.0832 79.032 24.4527 78.8369 24.0182L80.9813 22.8468C81.2462 23.3933 81.5245 24.1779 81.8164 25.2005C82.1083 26.2091 82.2534 27.0914 82.2518 27.8474C82.2502 28.6314 82.0946 29.3521 81.7853 30.0095C81.4759 30.6528 81.0478 31.1699 80.501 31.5608C79.9542 31.9376 79.3378 32.1253 78.6518 32.1239L78.5888 32.1237L78.5954 28.9947ZM72.9674 28.9829L73.0724 28.9831C73.7864 28.9846 74.3402 28.6008 74.7338 27.8316C75.0009 27.3002 75.2407 26.4817 75.453 25.3761L77.6158 25.4857C77.4598 26.4093 77.3814 27.0672 77.3806 27.4592C77.3785 28.4812 77.8044 28.9931 78.6584 28.9949L78.7004 28.995L78.8651 30.5703L78.6938 32.124L78.6518 32.1239C77.8958 32.1223 77.2592 31.9179 76.7421 31.5108C76.2249 31.1037 75.8621 30.529 75.6537 29.7865L76.1788 29.7456C75.3215 31.3258 74.2628 32.1146 73.0028 32.112L72.9608 32.1119L72.9674 28.9829ZM66.9548 32.0992L66.7901 30.5449L66.9614 28.9702L67.0664 28.9704C67.5004 28.9714 67.9276 28.8813 68.348 28.7001C68.7684 28.505 69.0839 28.2677 69.2945 27.9881C69.5892 27.6528 69.814 27.2752 69.9689 26.8555C70.1238 26.4359 70.2647 25.9882 70.3917 25.5124L72.5752 25.748C72.5611 25.818 72.4835 26.0978 72.3424 26.5876C72.2014 27.0633 72.1305 27.4971 72.1297 27.8891C72.1282 28.6171 72.4214 28.9817 73.0094 28.983L73.0514 28.9831L73.2161 30.5584L73.0448 32.112L72.9398 32.1118C72.3378 32.1106 71.8131 31.9484 71.3658 31.6255C70.9185 31.3026 70.6044 30.8749 70.4235 30.3425C69.9743 30.9156 69.4554 31.3555 68.8667 31.6622C68.2921 31.955 67.6758 32.1007 67.0178 32.0993L66.9548 32.0992ZM74.4793 19.053L76.1558 20.7156L74.4723 22.413C74.3466 22.2588 73.9275 21.8309 73.215 21.1294C73.215 21.1294 73.0752 20.9891 72.7958 20.7085L74.4793 19.053ZM78.4483 19.0614L80.1038 20.7239C80.1038 20.7239 79.8794 20.9474 79.4304 21.3945L78.4412 22.4214C78.4412 22.4214 78.064 22.0426 77.3096 21.285L76.7438 20.7168L78.4483 19.0614ZM76.4582 16.7682L77.9251 18.2413L76.4519 19.7292C76.4519 19.7292 76.1236 19.3995 75.467 18.7401L74.9641 18.2351L76.4582 16.7682ZM88.4521 32.2495C87.2341 32.247 86.2195 32.0628 85.4083 31.6971C84.5971 31.3174 83.9679 30.9381 83.5207 30.5591L84.6593 28.3565C85.1628 28.6096 85.6804 28.8277 86.212 29.0108C86.7436 29.1939 87.3944 29.2863 88.1644 29.2879C88.9204 29.2755 89.5366 29.1928 90.0129 29.0398C90.5033 28.8728 90.8257 28.6915 90.9801 28.4958C90.9941 28.4679 91.0012 28.4119 91.0014 28.3279C91.002 28.0339 90.8698 27.6486 90.6049 27.1721C90.3539 26.6815 89.9001 26.1066 89.2435 25.4472C88.6009 24.7738 87.7344 24.065 86.644 23.3207L88.1618 20.5729C89.7833 21.7243 91.0617 22.98 91.9968 24.34C92.946 25.7 93.4192 26.996 93.4166 28.228C93.4154 28.816 93.3023 29.3547 93.0772 29.8443C92.7396 30.6276 92.1433 31.2283 91.2884 31.6465C90.4336 32.0507 89.4881 32.2517 88.4521 32.2495ZM100.746 32.1704C99.7939 32.1684 99.0246 31.8168 98.4381 31.1156C97.8516 30.4143 97.3636 29.4333 96.9743 28.1725L98.8667 27.0215C99.0612 27.7639 99.298 28.2894 99.5774 28.598C99.8568 28.8926 100.248 29.0404 100.752 29.0415L100.941 29.0419L101.106 30.6172L100.935 32.1708L100.746 32.1704ZM92.2755 35.6386C93.2003 35.2625 94.0483 34.8233 94.8193 34.321C95.5904 33.8326 96.1934 33.3439 96.6284 32.8548C97.0774 32.3657 97.3023 31.9462 97.3031 31.5962C97.3043 31.0222 96.9366 29.4604 96.1999 26.9108L96.0958 26.4906L98.4498 25.5716C98.7837 26.5383 99.0476 27.5749 99.2412 28.6813C99.4349 29.7737 99.5309 30.7469 99.5291 31.6009C99.5262 32.9729 98.9845 34.2387 97.9041 35.3985C96.8236 36.5722 95.3725 37.5351 93.551 38.2873L92.2755 35.6386ZM100.757 29.0415L101.471 29.043C102.661 29.0455 103.641 28.9565 104.411 28.7762C105.182 28.5958 105.7 28.3519 105.967 28.0444C105.774 26.742 104.321 25.017 101.61 22.8692L101.889 20.1398L109.707 16.8593L110.542 19.3601L104.468 21.9303C105.362 22.7022 106.221 23.642 107.045 24.7497C107.868 25.8574 108.279 26.9573 108.277 28.0493C108.276 28.2873 108.241 28.5462 108.17 28.8261C107.888 29.9595 107.151 30.8049 105.96 31.3624C104.769 31.9059 103.27 32.1758 101.464 32.172L100.75 32.1705L100.757 29.0415ZM102.125 17.5993L108.956 14.8207L109.311 15.8295L101.996 18.8801L102.125 17.5993ZM127.134 26.3671C127.077 26.7309 127.049 26.9899 127.048 27.1439C127.047 27.8019 127.242 28.2923 127.633 28.6151C128.039 28.938 128.661 29.1003 129.501 29.1021L129.858 29.1028L130.023 30.6782L129.852 32.2318L129.495 32.2311C128.571 32.2291 127.766 32.0244 127.081 31.617C126.396 31.1955 125.872 30.6204 125.51 29.8916C125.147 29.1489 124.967 28.3085 124.969 27.3705C124.97 26.9225 125.013 26.4606 125.098 25.9848L127.134 26.3671ZM122.274 40.3638C120.93 40.361 119.706 40.1204 118.601 39.6421C117.496 39.1638 116.622 38.4689 115.98 37.5576C115.338 36.6602 115.019 35.6025 115.021 34.3845C115.022 34.1045 115.029 33.8946 115.043 33.7546C115.187 32.2009 115.806 30.8582 116.9 29.7265C117.994 28.5808 119.487 27.6809 121.379 27.0269C123.284 26.3589 125.504 25.9716 128.038 25.865L127.424 28.1107C126.571 27.7729 125.599 27.2108 124.509 26.4245C123.516 25.7224 122.705 25.2237 122.076 24.9284C121.461 24.6191 120.866 24.4638 120.292 24.4626C119.76 24.4615 119.284 24.6075 118.863 24.9006C118.456 25.1938 118.141 25.5221 117.916 25.8856L116.155 24.6009C117.237 22.5032 118.639 21.4561 120.361 21.4598C121.159 21.4615 121.936 21.6521 122.691 22.0317C123.46 22.3973 124.481 23.0435 125.753 23.9701C126.438 24.4616 126.969 24.8267 127.347 25.0655C127.724 25.2903 128.13 25.4802 128.564 25.6351L128.2 28.6373C126.086 28.6329 124.224 28.8809 122.613 29.3815C121.016 29.8822 119.761 30.5445 118.849 31.3686C117.952 32.1927 117.439 33.0596 117.311 33.9694C117.254 34.5853 117.455 35.1387 117.916 35.6297C118.391 36.1347 119.056 36.5281 119.909 36.8099C120.762 37.1057 121.721 37.2547 122.785 37.2569C123.765 37.259 124.689 37.1559 125.558 36.9478C126.426 36.7396 127.113 36.538 127.617 36.3431L128.746 38.7395C126.84 39.8275 124.682 40.3689 122.274 40.3638ZM122.503 31.4393C122.936 31.8602 123.363 32.2881 123.782 32.723L124.431 33.3754L122.495 35.3033L120.546 33.3672L122.503 31.4393ZM129.652 29.1024L129.799 29.1027C131.059 29.1053 131.997 29.0443 132.614 28.9196C133.23 28.7809 133.636 28.5788 133.833 28.3132C134.029 28.0476 134.128 27.6628 134.129 27.1588C134.13 26.7528 134.062 26.0877 133.923 25.1634L136.087 24.7479C136.281 25.7703 136.377 26.9256 136.374 28.2135C136.43 28.4517 136.583 28.662 136.835 28.8445C137.086 29.0271 137.45 29.1188 137.926 29.1198L138.052 29.1201L138.217 30.6954L138.046 32.2491L137.92 32.2488C137.276 32.2475 136.681 32.0712 136.136 31.7201C135.59 31.3549 135.164 30.899 134.858 30.3524L135.382 30.4585C135.003 31.1017 134.386 31.5624 133.531 31.8406C132.691 32.1048 131.445 32.2352 129.793 32.2317L129.646 32.2314L129.652 29.1024ZM135.157 37.598L133.397 35.8303L135.165 34.049C135.556 34.4418 135.752 34.6382 135.752 34.6382C136.548 35.4379 136.946 35.8378 136.946 35.8378L135.157 37.598ZM131.461 37.5902L129.701 35.8225L131.469 34.0412C131.86 34.434 132.056 34.6305 132.056 34.6305C132.852 35.4301 133.25 35.83 133.25 35.83L131.461 37.5902ZM138.759 29.1216L139.767 29.1237C141.153 29.1266 142.133 29.0097 142.708 28.7729C143.282 28.5361 143.57 28.1727 143.571 27.6827C143.557 27.3747 143.398 26.7864 143.092 25.9177C142.785 25.0351 142.563 24.4466 142.423 24.1523L144.652 22.939C144.931 23.5276 145.209 24.3122 145.487 25.2928C145.765 26.2593 145.903 27.1066 145.901 27.8346C145.884 29.2626 145.399 30.3606 144.446 31.1286C143.492 31.8826 142.084 32.2576 140.222 32.2537L138.752 32.2506L138.759 29.1216ZM143.677 37.07L142.001 35.4074L143.684 33.71C143.949 34.0045 144.362 34.4324 144.92 34.9936L145.361 35.4145L143.677 37.07ZM139.708 37.0616L138.053 35.3991L138.705 34.7285L139.715 33.7016L140.847 34.838L141.413 35.4062L139.708 37.0616ZM141.698 39.3548L140.231 37.8817L141.704 36.3938C141.704 36.3938 142.033 36.7235 142.689 37.3829L143.192 37.8879L141.698 39.3548ZM137.87 32.2487L137.705 30.6944L137.877 29.1197L138.906 29.1219L138.899 32.2509L137.87 32.2487Z" fill="black"/>
</svg>
