<svg width="236" height="52" viewBox="0 0 236 52" fill="none" xmlns="http://www.w3.org/2000/svg">
<path d="M0.945677 14.3162C13.6434 32.6118 71.6409 51.8285 111.252 51.5811C154.063 51.4039 177.837 44.0537 224.744 16.1277C224.467 19.293 223.948 21.8624 223.906 24.2157C223.737 26.898 223.587 29.7344 224.079 32.3341C224.175 33.1048 225.837 34.3062 226.849 34.3365C227.86 34.3668 229.38 33.0814 229.614 32.2695C231.668 24.4993 233.391 16.7704 235.26 8.86679C235.779 6.29738 234.556 4.57158 231.648 4.15181C220.59 3.02735 209.512 1.74875 198.307 0.79907C195.768 0.64629 192.868 1.6344 189.56 2.04724C193.034 8.34487 198.892 6.83107 203.404 7.98989C208.1 9.2822 213.032 9.76254 219.051 10.8897C206.401 21.2347 193.181 28.3634 178.883 33.5916C126.541 52.9602 75.6142 48.6715 26.2981 26.3363C19.8821 23.3802 13.8854 19.7455 7.61553 16.6145C5.69998 16.0709 3.9498 15.5067 0.945677 14.3162Z" fill="#D4E32D"/>
</svg>
