<svg width="135" height="45" viewBox="0 0 135 45" fill="none" xmlns="http://www.w3.org/2000/svg">
<path d="M48.4268 44.1124V3.15089L52.1265 6.86894H38.8206V0H56.8647V44.1124H48.4268Z" fill="#A5A5A5"/>
<path d="M7.72392 20.2917H30.3764V27.2237H7.72392V20.2917ZM8.4379 44.1124H0V0H33.1674V6.86894H8.4379V44.1124Z" fill="#A5A5A5"/>
<path d="M81.1461 44.4057C78.4782 44.4057 76.0217 43.9457 73.7768 43.0258C71.5318 42.1058 69.5797 40.8281 67.9204 39.1927C66.2611 37.5231 64.9759 35.581 64.0649 33.3664C63.1539 31.1176 62.6984 28.6644 62.6984 26.0068C62.6984 23.3492 63.1539 20.9131 64.0649 18.6984C64.9759 16.4496 66.2611 14.5075 67.9204 12.8721C69.5797 11.2025 71.5318 9.90781 73.7768 8.98787C76.0217 8.06793 78.4619 7.60796 81.0973 7.60796C83.7652 7.60796 86.2054 8.06793 88.4178 8.98787C90.6627 9.90781 92.6149 11.2025 94.2742 12.8721C95.9335 14.5075 97.2187 16.4496 98.1297 18.6984C99.0406 20.9131 99.4961 23.3492 99.4961 26.0068C99.4961 28.6644 99.0406 31.1176 98.1297 33.3664C97.2187 35.6151 95.9335 37.5572 94.2742 39.1927C92.6149 40.8281 90.6627 42.1058 88.4178 43.0258C86.2054 43.9457 83.7815 44.4057 81.1461 44.4057ZM81.0973 38.5794C82.8217 38.5794 84.4159 38.2727 85.88 37.6594C87.3441 37.0461 88.613 36.1773 89.6867 35.0529C90.7603 33.8945 91.59 32.5657 92.1756 31.0665C92.7938 29.5333 93.1029 27.8467 93.1029 26.0068C93.1029 24.1669 92.7938 22.4974 92.1756 20.9982C91.59 19.465 90.7603 18.1362 89.6867 17.0118C88.613 15.8534 87.3441 14.9675 85.88 14.3542C84.4159 13.7409 82.8217 13.4343 81.0973 13.4343C79.3729 13.4343 77.7787 13.7409 76.3146 14.3542C74.883 14.9675 73.6141 15.8534 72.5079 17.0118C71.4342 18.1362 70.5883 19.465 69.9701 20.9982C69.3845 22.4974 69.0917 24.1669 69.0917 26.0068C69.0917 27.8126 69.3845 29.4821 69.9701 31.0154C70.5883 32.5486 71.4342 33.8945 72.5079 35.0529C73.5816 36.1773 74.8505 37.0461 76.3146 37.6594C77.7787 38.2727 79.3729 38.5794 81.0973 38.5794Z" fill="#AFA7FF"/>
<path d="M116.65 44.4057C113.982 44.4057 111.526 43.9457 109.281 43.0258C107.036 42.1058 105.084 40.8281 103.424 39.1927C101.765 37.5231 100.48 35.581 99.5688 33.3664C98.6578 31.1176 98.2023 28.6644 98.2023 26.0068C98.2023 23.3492 98.6578 20.9131 99.5688 18.6984C100.48 16.4496 101.765 14.5075 103.424 12.8721C105.084 11.2025 107.036 9.90781 109.281 8.98787C111.526 8.06793 113.966 7.60796 116.601 7.60796C119.269 7.60796 121.709 8.06793 123.922 8.98787C126.167 9.90781 128.119 11.2025 129.778 12.8721C131.437 14.5075 132.723 16.4496 133.633 18.6984C134.544 20.9131 135 23.3492 135 26.0068C135 28.6644 134.544 31.1176 133.633 33.3664C132.723 35.6151 131.437 37.5572 129.778 39.1927C128.119 40.8281 126.167 42.1058 123.922 43.0258C121.709 43.9457 119.285 44.4057 116.65 44.4057ZM116.601 38.5794C118.326 38.5794 119.92 38.2727 121.384 37.6594C122.848 37.0461 124.117 36.1773 125.191 35.0529C126.264 33.8945 127.094 32.5657 127.679 31.0665C128.298 29.5333 128.607 27.8467 128.607 26.0068C128.607 24.1669 128.298 22.4974 127.679 20.9982C127.094 19.465 126.264 18.1362 125.191 17.0118C124.117 15.8534 122.848 14.9675 121.384 14.3542C119.92 13.7409 118.326 13.4343 116.601 13.4343C114.877 13.4343 113.283 13.7409 111.818 14.3542C110.387 14.9675 109.118 15.8534 108.012 17.0118C106.938 18.1362 106.092 19.465 105.474 20.9982C104.888 22.4974 104.596 24.1669 104.596 26.0068C104.596 27.8126 104.888 29.4821 105.474 31.0154C106.092 32.5486 106.938 33.8945 108.012 35.0529C109.085 36.1773 110.354 37.0461 111.818 37.6594C113.283 38.2727 114.877 38.5794 116.601 38.5794Z" fill="#AFA7FF"/>
</svg>
