<svg width="28" height="27" viewBox="0 0 28 27" fill="none" xmlns="http://www.w3.org/2000/svg">
<path d="M0.63501 26.5482L2.50112 19.7308C1.3496 17.7353 0.744521 15.4732 0.745627 13.1535C0.748946 5.90144 6.65038 0 13.9014 0C17.4201 0.00110617 20.7231 1.37166 23.2076 3.85833C25.691 6.34501 27.0582 9.65026 27.0571 13.1657C27.0538 20.4189 21.1523 26.3203 13.9014 26.3203C11.7001 26.3192 9.53086 25.7672 7.60944 24.7186L0.63501 26.5482ZM7.93244 22.337C9.78639 23.4376 11.5563 24.0969 13.8969 24.098C19.9234 24.098 24.8326 19.1932 24.8359 13.1635C24.8381 7.12155 19.9521 2.22341 13.9058 2.2212C7.87492 2.2212 2.96904 7.12597 2.96682 13.1546C2.96572 15.6159 3.68694 17.4587 4.8982 19.3868L3.79314 23.4221L7.93244 22.337ZM20.5284 16.2928C20.4466 16.1557 20.2276 16.0738 19.8979 15.909C19.5694 15.7442 17.9533 14.9488 17.6513 14.8393C17.3504 14.7298 17.1314 14.6745 16.9113 15.0041C16.6922 15.3327 16.0617 16.0738 15.8703 16.2928C15.679 16.5119 15.4865 16.5395 15.158 16.3747C14.8294 16.2099 13.7697 15.8636 12.5142 14.7431C11.5375 13.8714 10.8771 12.7951 10.6857 12.4655C10.4943 12.1369 10.6658 11.9588 10.8295 11.7951C10.9777 11.648 11.158 11.4113 11.3229 11.2188C11.4899 11.0286 11.5441 10.8914 11.6547 10.6713C11.7642 10.4522 11.71 10.2598 11.6271 10.0949C11.5441 9.93123 10.887 8.3129 10.6138 7.65472C10.3461 7.01425 10.0751 7.10053 9.87377 7.09057L9.24325 7.07951C9.02423 7.07951 8.66804 7.16137 8.36716 7.49101C8.06629 7.82065 7.21674 8.61488 7.21674 10.2332C7.21674 11.8515 8.39482 13.4146 8.55853 13.6336C8.72335 13.8526 10.876 17.1733 14.1735 18.597C14.9577 18.9355 15.5706 19.1379 16.0473 19.2895C16.8349 19.5395 17.5517 19.5041 18.1181 19.42C18.7497 19.326 20.0627 18.6246 20.3371 17.857C20.6114 17.0882 20.6114 16.43 20.5284 16.2928Z" fill="white"/>
</svg>
