<svg width="28" height="27" viewBox="0 0 28 27" fill="none" xmlns="http://www.w3.org/2000/svg">
<g clip-path="url(#clip0_5_357)">
<path d="M27.1012 7.96444C27.1012 7.96444 26.842 6.13407 26.0435 5.33036C25.0323 4.27258 23.902 4.2674 23.3835 4.20518C19.6709 3.93555 14.0968 3.93555 14.0968 3.93555H14.0864C14.0864 3.93555 8.51233 3.93555 4.79973 4.20518C4.28121 4.2674 3.15084 4.27258 2.13973 5.33036C1.34121 6.13407 1.08713 7.96444 1.08713 7.96444C1.08713 7.96444 0.817505 10.1163 0.817505 12.263V14.2748C0.817505 16.4215 1.08195 18.5733 1.08195 18.5733C1.08195 18.5733 1.34121 20.4037 2.13454 21.2074C3.14566 22.2652 4.47306 22.2289 5.06418 22.343C7.1901 22.5452 14.0916 22.6074 14.0916 22.6074C14.0916 22.6074 19.6709 22.597 23.3835 22.3326C23.902 22.2704 25.0323 22.2652 26.0435 21.2074C26.842 20.4037 27.1012 18.5733 27.1012 18.5733C27.1012 18.5733 27.3657 16.4267 27.3657 14.2748V12.263C27.3657 10.1163 27.1012 7.96444 27.1012 7.96444ZM11.3486 16.717V9.25555L18.5197 12.9993L11.3486 16.717Z" fill="white"/>
</g>
<defs>
<clipPath id="clip0_5_357">
<rect width="26.5482" height="26.5482" fill="white" transform="translate(0.817505)"/>
</clipPath>
</defs>
</svg>
