<svg width="27" height="27" viewBox="0 0 27 27" fill="none" xmlns="http://www.w3.org/2000/svg">
<g clip-path="url(#clip0_5_356)">
<path d="M13.2741 2.39037C16.8208 2.39037 17.2408 2.40593 18.6356 2.46815C19.9319 2.52519 20.6319 2.74297 21.0985 2.92445C21.7156 3.16297 22.1615 3.45334 22.623 3.91482C23.0897 4.38149 23.3748 4.82223 23.6134 5.43926C23.7948 5.90593 24.0126 6.61112 24.0697 7.90223C24.1319 9.30223 24.1474 9.72223 24.1474 13.2637C24.1474 16.8104 24.1319 17.2304 24.0697 18.6252C24.0126 19.9215 23.7948 20.6215 23.6134 21.0882C23.3748 21.7052 23.0845 22.1511 22.623 22.6126C22.1563 23.0793 21.7156 23.3645 21.0985 23.603C20.6319 23.7845 19.9267 24.0022 18.6356 24.0593C17.2356 24.1215 16.8156 24.1371 13.2741 24.1371C9.72742 24.1371 9.30742 24.1215 7.9126 24.0593C6.6163 24.0022 5.9163 23.7845 5.44964 23.603C4.8326 23.3645 4.38667 23.0741 3.92519 22.6126C3.45852 22.1459 3.17334 21.7052 2.93482 21.0882C2.75334 20.6215 2.53556 19.9163 2.47852 18.6252C2.4163 17.2252 2.40074 16.8052 2.40074 13.2637C2.40074 9.71705 2.4163 9.29705 2.47852 7.90223C2.53556 6.60593 2.75334 5.90593 2.93482 5.43926C3.17334 4.82223 3.46371 4.3763 3.92519 3.91482C4.39186 3.44815 4.8326 3.16297 5.44964 2.92445C5.9163 2.74297 6.62149 2.52519 7.9126 2.46815C9.30742 2.40593 9.72742 2.39037 13.2741 2.39037ZM13.2741 0C9.67038 0 9.21927 0.0155556 7.80371 0.0777779C6.39334 0.14 5.42371 0.368148 4.58371 0.694815C3.70741 1.03704 2.96593 1.48815 2.22963 2.22963C1.48815 2.96593 1.03704 3.70741 0.694815 4.57852C0.368148 5.42371 0.14 6.38815 0.0777779 7.79853C0.0155556 9.21927 0 9.67038 0 13.2741C0 16.8778 0.0155556 17.3289 0.0777779 18.7445C0.14 20.1548 0.368148 21.1245 0.694815 21.9645C1.03704 22.8408 1.48815 23.5822 2.22963 24.3185C2.96593 25.0548 3.70741 25.5111 4.57852 25.8482C5.42371 26.1748 6.38815 26.403 7.79853 26.4652C9.21408 26.5274 9.66519 26.543 13.2689 26.543C16.8726 26.543 17.3237 26.5274 18.7393 26.4652C20.1496 26.403 21.1193 26.1748 21.9593 25.8482C22.8304 25.5111 23.5719 25.0548 24.3082 24.3185C25.0445 23.5822 25.5008 22.8408 25.8378 21.9697C26.1645 21.1245 26.3926 20.16 26.4548 18.7496C26.5171 17.3341 26.5326 16.883 26.5326 13.2793C26.5326 9.67557 26.5171 9.22445 26.4548 7.8089C26.3926 6.39852 26.1645 5.42889 25.8378 4.58889C25.5111 3.70741 25.06 2.96593 24.3185 2.22963C23.5822 1.49333 22.8408 1.03704 21.9697 0.700001C21.1245 0.373334 20.16 0.145185 18.7496 0.082963C17.3289 0.0155556 16.8778 0 13.2741 0Z" fill="white"/>
<path d="M13.2741 6.45508C9.50964 6.45508 6.45556 9.50916 6.45556 13.2736C6.45556 17.0381 9.50964 20.0921 13.2741 20.0921C17.0385 20.0921 20.0926 17.0381 20.0926 13.2736C20.0926 9.50916 17.0385 6.45508 13.2741 6.45508ZM13.2741 17.6966C10.8319 17.6966 8.85112 15.7158 8.85112 13.2736C8.85112 10.8314 10.8319 8.85064 13.2741 8.85064C15.7163 8.85064 17.6971 10.8314 17.6971 13.2736C17.6971 15.7158 15.7163 17.6966 13.2741 17.6966Z" fill="white"/>
<path d="M21.9541 6.18561C21.9541 7.06709 21.2385 7.77746 20.3622 7.77746C19.4808 7.77746 18.7704 7.0619 18.7704 6.18561C18.7704 5.30412 19.4859 4.59375 20.3622 4.59375C21.2385 4.59375 21.9541 5.30931 21.9541 6.18561Z" fill="white"/>
</g>
<defs>
<clipPath id="clip0_5_356">
<rect width="26.5482" height="26.5482" fill="white"/>
</clipPath>
</defs>
</svg>
