<svg width="79" height="55" viewBox="0 0 79 55" fill="none" xmlns="http://www.w3.org/2000/svg">
<g clip-path="url(#clip0_5_320)">
<path d="M2.50116 0.0429688L78.4294 3.34417L76.2141 54.296L0.285877 50.9948L2.50116 0.0429688Z" fill="#E30A17"/>
<path d="M40.1707 19.3838C38.2933 17.8841 35.973 17.022 33.5598 16.932C27.5211 16.6695 22.4373 21.0457 22.1905 26.722C21.9437 32.3982 26.6433 37.1998 32.6673 37.4617C35.1982 37.5718 37.5717 36.869 39.466 35.593C34.7757 41.1507 26.4863 41.8351 20.9681 37.1023C15.45 32.3696 14.7741 24.0411 19.4791 18.4841C24.1842 12.9271 32.4588 12.242 37.977 16.9748C38.8063 17.6825 39.5416 18.5056 40.1707 19.3838ZM45.65 29.4435L42.8292 32.5898L43.1908 28.3664L39.3507 26.6471L43.4406 25.6905L43.8903 21.4859L46.0457 25.1172L50.1619 24.2364L47.4293 27.4014L49.539 31.0605L45.65 29.4435Z" fill="white"/>
</g>
<defs>
<clipPath id="clip0_5_320">
<rect width="76" height="51" fill="white" transform="translate(2.50116 0.0429688) rotate(2.48954)"/>
</clipPath>
</defs>
</svg>
