<svg width="91" height="62" viewBox="0 0 91 62" fill="none" xmlns="http://www.w3.org/2000/svg">
<g clip-path="url(#clip0_5_344)">
<path d="M0.94043 0.973633H90.4071V61.9736H0.94043V0.973633Z" fill="#055E1C"/>
<path d="M33.0135 37.4403C33.0135 39.6376 34.7139 41.4186 36.8116 41.4186H48.2061C48.2061 43.2493 49.6232 44.7339 51.3713 44.7339H55.1694C56.9175 44.7339 58.3347 43.2495 58.3347 41.4186V37.4403H33.0135ZM58.6506 18.2119V27.4945C58.6506 28.9569 57.5148 30.1466 56.1185 30.1466V34.1249C59.609 34.1249 62.4486 31.1506 62.4486 27.4945V18.2119H58.6506ZM31.4309 27.4947C31.4309 28.9571 30.2951 30.1468 28.8987 30.1468V34.1251C32.3893 34.1251 35.2289 31.1508 35.2289 27.4947V18.2121H31.4307V27.4947H31.4309Z" fill="white"/>
<path d="M52.9536 18.2109H56.7517V27.4936H52.9536V18.2109ZM47.2564 23.516C47.2564 23.8816 46.9724 24.179 46.6233 24.179C46.2741 24.179 45.9902 23.8816 45.9902 23.516V18.2115H42.192V23.516C42.192 23.8816 41.9081 24.179 41.559 24.179C41.2098 24.179 40.9259 23.8816 40.9259 23.516V18.2115H37.1277V23.516C37.1277 26.0751 39.1156 28.1573 41.5588 28.1573C42.4998 28.1573 43.3726 27.8476 44.0909 27.3215C44.8091 27.8476 45.6821 28.1573 46.6231 28.1573C46.8125 28.1573 46.9988 28.1433 47.1823 28.1189C46.9132 29.2803 45.9145 30.1463 44.724 30.1463V34.1246C48.2146 34.1246 51.0541 31.1503 51.0541 27.4943V18.2115H47.256L47.2564 23.516Z" fill="white"/>
<path d="M37.1277 30.1455H42.8244V34.1238H37.1277V30.1455Z" fill="white"/>
</g>
<defs>
<clipPath id="clip0_5_344">
<rect width="89.4667" height="61" fill="white" transform="translate(0.94043 0.973633)"/>
</clipPath>
</defs>
</svg>
