<svg width="64" height="46" viewBox="0 0 64 46" fill="none" xmlns="http://www.w3.org/2000/svg">
<g clip-path="url(#clip0_5_322)">
<path d="M0 0.550781H64V45.0725H0V0.550781Z" fill="white"/>
<path d="M0 0.550781H64V3.97453H0V0.550781ZM0 7.39828H64V10.822H0V7.39828ZM0 14.2458H64V17.6695H0V14.2458ZM0 21.0933H64V24.517H0V21.0933ZM0 27.9538H64V31.3775H0V27.9538ZM0 34.8013H64V38.225H0V34.8013ZM0 41.6488H64V45.0725H0V41.6488Z" fill="#D80027"/>
<path d="M0 0.550781H32V24.517H0V0.550781Z" fill="#2E52B2"/>
<path d="M5.96335 18.6332L5.46433 16.9669L4.9154 18.6332H3.26862L4.60351 19.6356L4.10448 21.3019L5.46433 20.2735L6.78674 21.3019L6.27524 19.6356L7.63509 18.6332H5.96335ZM12.9871 18.6332L12.4756 16.9669L11.9517 18.6332H10.3049L11.6398 19.6356L11.1407 21.3019L12.4756 20.2735L13.823 21.3019L13.324 19.6356L14.6589 18.6332H12.9871ZM20.0359 18.6332L19.4994 16.9669L19.0004 18.6332H17.3162L18.6885 19.6356L18.1645 21.3019L19.4994 20.2735L20.8717 21.3019L20.3478 19.6356L21.6827 18.6332H20.0359ZM27.0472 18.6332L26.5481 16.9669L26.0242 18.6332H24.3649L25.7123 19.6356L25.2133 21.3019L26.5481 20.2735L27.8955 21.3019L27.3591 19.6356L28.7314 18.6332H27.0472ZM12.4756 10.3537L11.9517 12.02H10.3049L11.6398 13.0485L11.1407 14.6887L12.4756 13.6733L13.823 14.6887L13.324 13.0485L14.6589 12.02H12.9871L12.4756 10.3537ZM5.46433 10.3537L4.9154 12.02H3.26862L4.60351 13.0485L4.10448 14.6887L5.46433 13.6733L6.78674 14.6887L6.27524 13.0485L7.63509 12.02H5.96335L5.46433 10.3537ZM19.4994 10.3537L19.0004 12.02H17.3162L18.6885 13.0485L18.1645 14.6887L19.4994 13.6733L20.8717 14.6887L20.3478 13.0485L21.6827 12.02H20.0359L19.4994 10.3537ZM26.5481 10.3537L26.0242 12.02H24.3649L25.7123 13.0485L25.2133 14.6887L26.5481 13.6733L27.8955 14.6887L27.3591 13.0485L28.7314 12.02H27.0472L26.5481 10.3537ZM5.46433 3.7666L4.9154 5.40688H3.26862L4.60351 6.4353L4.10448 8.08859L5.46433 7.06017L6.78674 8.08859L6.27524 6.4353L7.63509 5.40688H5.96335L5.46433 3.7666ZM12.4756 3.7666L11.9517 5.40688H10.3049L11.6398 6.4353L11.1407 8.08859L12.4756 7.06017L13.823 8.08859L13.324 6.4353L14.6589 5.40688H12.9871L12.4756 3.7666ZM19.4994 3.7666L19.0004 5.40688H17.3162L18.6885 6.4353L18.1645 8.08859L19.4994 7.06017L20.8717 8.08859L20.3478 6.4353L21.6827 5.40688H20.0359L19.4994 3.7666ZM26.5481 3.7666L26.0242 5.40688H24.3649L25.7123 6.4353L25.2133 8.08859L26.5481 7.06017L27.8955 8.08859L27.3591 6.4353L28.7314 5.40688H27.0472L26.5481 3.7666Z" fill="white"/>
</g>
<defs>
<clipPath id="clip0_5_322">
<rect width="64" height="44.5217" fill="white" transform="translate(0 0.550781)"/>
</clipPath>
</defs>
</svg>
